<svg width="40" height="40" viewBox="0 0 40 40" fill="none" xmlns="http://www.w3.org/2000/svg">
<path fill-rule="evenodd" clip-rule="evenodd" d="M20 40C31.0459 40 40 31.0457 40 20C40 8.95435 31.0459 0 20 0C8.9541 0 0 8.95435 0 20C0 31.0457 8.9541 40 20 40ZM14.0371 19.5579H30.5244C31.3359 19.5579 32 20.2102 32 21.0076C32 21.8049 31.3359 22.4573 30.5244 22.4573H14.0371L21.2402 29.5325C21.377 29.6667 21.4854 29.8259 21.5586 30.0015C21.6328 30.1768 21.6709 30.3647 21.6709 30.5544C21.6709 30.7444 21.6328 30.9324 21.5586 31.1077C21.4854 31.283 21.377 31.4424 21.2402 31.5767C21.1523 31.6633 21.0537 31.7383 20.9463 31.8003C20.8877 31.8342 20.8262 31.8643 20.7627 31.8899C20.584 31.9626 20.3926 32 20.1992 32C20.0059 32 19.8145 31.9626 19.6357 31.8899C19.457 31.8174 19.2949 31.7109 19.1582 31.5767L9.43164 22.0225C9.29492 21.8882 9.18652 21.729 9.1123 21.5535C9.06641 21.4441 9.03418 21.3298 9.0166 21.2134C9.00586 21.1431 9 21.0718 9 21.0002C9 20.8105 9.03809 20.6223 9.1123 20.447C9.16406 20.3254 9.23145 20.2117 9.31445 20.1086C9.35059 20.063 9.38965 20.0195 9.43164 19.9783L19.1582 10.4241C19.2178 10.365 19.2832 10.3113 19.3525 10.2634C19.4404 10.2024 19.5352 10.1509 19.6357 10.1101C19.7217 10.075 19.8115 10.0481 19.9023 10.0298C20 10.01 20.0996 10 20.1992 10C20.3926 10 20.584 10.0374 20.7627 10.1101C20.9414 10.1829 21.1035 10.2896 21.2402 10.4241C21.8154 10.9895 21.8154 11.9172 21.2402 12.4827L14.0371 19.5579Z" fill="#FF9675"/>
</svg>
