<svg width="44" height="44" viewBox="0 0 44 44" fill="none" xmlns="http://www.w3.org/2000/svg">
<circle cx="22" cy="22" r="22" fill="white"/>
<path d="M36 13H9C8.44771 13 8 13.4477 8 14V16.1739C8 16.7262 8.44772 17.1739 9 17.1739H32.5439C33.0961 17.1739 33.5439 17.6216 33.5439 18.1739V18.7826C33.5439 19.3349 33.0961 19.7826 32.5439 19.7826H15.386C14.8337 19.7826 14.386 20.2303 14.386 20.7826V22.9565C14.386 23.5088 14.8337 23.9565 15.386 23.9565H29.5965C30.1488 23.9565 30.5965 24.4042 30.5965 24.9565V25.5652C30.5965 26.1175 30.1488 26.5652 29.5965 26.5652H20.2982C19.746 26.5652 19.2982 27.0129 19.2982 27.5652V30C19.2982 30.5523 19.746 31 20.2982 31H36" stroke="black"/>
</svg>
