<svg width="837" height="579" viewBox="0 0 837 579" fill="none" xmlns="http://www.w3.org/2000/svg">
<rect x="2.5" y="2.5" width="832" height="574" rx="14.5" fill="white" stroke="#545454" stroke-width="5"/>
<path d="M425 63V515.5M72.5 279.5H771.5" stroke="black" stroke-width="2"/>
<path d="M115 214.5H133C134.657 214.5 136 213.157 136 211.5V207V162C136 160.343 137.343 159 139 159H168.5C170.157 159 171.5 160.343 171.5 162V191.5C171.5 193.157 172.843 194.5 174.5 194.5H177C178.657 194.5 180 193.157 180 191.5V122C180 120.343 181.343 119 183 119H211.5C213.157 119 214.5 120.343 214.5 122V201C214.5 202.657 215.843 204 217.5 204H219.5C221.157 204 222.5 202.657 222.5 201V154C222.5 152.343 223.843 151 225.5 151H254C255.657 151 257 152.343 257 154V204C257 205.657 258.343 207 260 207H261.5C263.157 207 264.5 205.657 264.5 204V126C264.5 124.343 265.843 123 267.5 123H298C299.657 123 301 124.343 301 126V211V213.5C301 215.157 302.343 216.5 304 216.5H328" stroke="black" stroke-width="2"/>
<path d="M81 494L121.5 425L174 461.5L232 364.5L277 406.5L340.5 322" stroke="black" stroke-width="2" stroke-linecap="round" stroke-linejoin="round"/>
<circle cx="277.5" cy="404.5" r="5.5" fill="black"/>
<circle cx="231.5" cy="364.5" r="5.5" fill="black"/>
<circle cx="173.5" cy="460.5" r="5.5" fill="black"/>
<circle cx="121.5" cy="424.5" r="5.5" fill="black"/>
<mask id="path-9-inside-1" fill="white">
<path d="M693.858 178.261C698.266 178.555 701.647 182.381 700.866 186.73C698.574 199.486 692.871 211.441 684.294 221.288C675.717 231.136 664.659 238.426 652.338 242.447C648.138 243.818 643.883 240.995 642.987 236.669L632.136 184.306C631.062 179.126 635.223 174.348 640.502 174.701L693.858 178.261Z"/>
</mask>
<path d="M693.858 178.261C698.266 178.555 701.647 182.381 700.866 186.73C698.574 199.486 692.871 211.441 684.294 221.288C675.717 231.136 664.659 238.426 652.338 242.447C648.138 243.818 643.883 240.995 642.987 236.669L632.136 184.306C631.062 179.126 635.223 174.348 640.502 174.701L693.858 178.261Z" fill="#FF9675" stroke="black" stroke-width="2" mask="url(#path-9-inside-1)"/>
<path d="M678.169 127.289C686.329 138.949 690.793 152.785 690.993 167H628.327C623.359 167 619.592 171.481 620.446 176.375L631.215 238.109C617.177 240.354 602.78 238.335 589.891 232.3C576.701 226.123 565.729 216.039 558.464 203.416C551.198 190.792 547.991 176.239 549.277 161.731C550.563 147.223 556.28 133.461 565.653 122.312C575.025 111.163 587.6 103.167 601.671 99.4067C615.742 95.6466 630.63 96.3051 644.314 101.293C657.998 106.281 669.818 115.356 678.169 127.289Z" fill="white" stroke="black" stroke-width="2"/>
<circle cx="484" cy="345" r="4" fill="black"/>
<circle cx="544" cy="378" r="4" fill="black"/>
<circle cx="651" cy="359" r="4" fill="black"/>
<circle cx="651" cy="432" r="4" fill="black"/>
<circle cx="582" cy="490" r="4" fill="black"/>
<circle cx="604" cy="408" r="4" fill="black"/>
<circle cx="596" cy="336" r="4" fill="black"/>
<circle cx="488" cy="475" r="4" fill="black"/>
<circle cx="511" cy="424" r="4" fill="black"/>
<circle cx="710" cy="382" r="4" fill="black"/>
<circle cx="714" cy="344" r="4" fill="black"/>
<path d="M488.5 476L484 344L511 424.5L544 377.5L582 491L596 335.5L603.5 408L651.5 357.5V431.5L710.5 381L714 344" stroke="black" stroke-opacity="0.08"/>
</svg>
