<svg width="782" height="522" viewBox="0 0 782 522" fill="none" xmlns="http://www.w3.org/2000/svg">
<rect width="782" height="522" rx="26" fill="#292929"/>
<path d="M54.283 144.096C54.723 144.096 55.152 144.096 55.57 144.096C55.988 144.074 56.351 144.041 56.659 143.997V140.433C56.395 140.389 56.076 140.356 55.702 140.334C55.328 140.29 54.987 140.268 54.679 140.268C54.261 140.268 53.854 140.301 53.458 140.367C53.062 140.411 52.71 140.499 52.402 140.631C52.116 140.763 51.885 140.95 51.709 141.192C51.533 141.434 51.445 141.753 51.445 142.149C51.445 142.853 51.709 143.359 52.237 143.667C52.765 143.953 53.447 144.096 54.283 144.096ZM53.92 131.094C55.196 131.094 56.252 131.248 57.088 131.556C57.946 131.842 58.628 132.26 59.134 132.81C59.64 133.338 60.003 133.998 60.223 134.79C60.443 135.56 60.553 136.429 60.553 137.397V146.637C59.959 146.769 59.079 146.923 57.913 147.099C56.747 147.275 55.438 147.363 53.986 147.363C52.996 147.363 52.094 147.275 51.28 147.099C50.488 146.923 49.806 146.637 49.234 146.241C48.662 145.823 48.222 145.295 47.914 144.657C47.606 143.997 47.452 143.194 47.452 142.248C47.452 141.346 47.628 140.587 47.98 139.971C48.332 139.355 48.805 138.86 49.399 138.486C49.993 138.112 50.675 137.848 51.445 137.694C52.215 137.518 53.018 137.43 53.854 137.43C54.91 137.43 55.845 137.518 56.659 137.694V137.199C56.659 136.429 56.417 135.791 55.933 135.285C55.449 134.757 54.613 134.493 53.425 134.493C52.655 134.493 51.907 134.548 51.181 134.658C50.477 134.768 49.905 134.9 49.465 135.054L48.904 131.787C49.41 131.611 50.125 131.457 51.049 131.325C51.973 131.171 52.93 131.094 53.92 131.094ZM70.354 143.931C71.344 143.931 72.103 143.865 72.631 143.733C73.159 143.579 73.423 143.282 73.423 142.842C73.423 142.556 73.335 142.314 73.159 142.116C73.005 141.918 72.774 141.753 72.466 141.621C72.18 141.467 71.839 141.324 71.443 141.192C71.069 141.06 70.673 140.928 70.255 140.796C69.661 140.62 69.056 140.422 68.44 140.202C67.824 139.96 67.263 139.663 66.757 139.311C66.251 138.959 65.833 138.519 65.503 137.991C65.173 137.441 65.008 136.759 65.008 135.945C65.008 135.285 65.129 134.669 65.371 134.097C65.635 133.503 66.031 132.986 66.559 132.546C67.109 132.084 67.802 131.732 68.638 131.49C69.474 131.226 70.475 131.094 71.641 131.094C72.653 131.094 73.588 131.171 74.446 131.325C75.326 131.479 76.085 131.699 76.723 131.985L76.096 135.417C75.722 135.307 75.139 135.131 74.347 134.889C73.555 134.625 72.664 134.493 71.674 134.493C70.64 134.493 69.936 134.625 69.562 134.889C69.21 135.131 69.034 135.395 69.034 135.681C69.034 135.923 69.111 136.143 69.265 136.341C69.441 136.517 69.661 136.682 69.925 136.836C70.211 136.99 70.53 137.144 70.882 137.298C71.256 137.43 71.652 137.562 72.07 137.694C72.664 137.892 73.28 138.112 73.918 138.354C74.556 138.596 75.128 138.904 75.634 139.278C76.162 139.63 76.591 140.092 76.921 140.664C77.251 141.214 77.416 141.896 77.416 142.71C77.416 143.348 77.295 143.953 77.053 144.525C76.811 145.097 76.404 145.592 75.832 146.01C75.282 146.428 74.556 146.758 73.654 147C72.752 147.242 71.641 147.363 70.321 147.363C68.979 147.363 67.835 147.209 66.889 146.901C65.943 146.593 65.184 146.318 64.612 146.076L65.239 142.677C66.009 142.985 66.823 143.271 67.681 143.535C68.561 143.799 69.452 143.931 70.354 143.931ZM95.236 131.49C94.818 132.942 94.411 134.372 94.015 135.78C93.641 137.166 93.245 138.53 92.827 139.872C92.409 141.192 91.958 142.49 91.474 143.766C91.012 145.042 90.506 146.285 89.956 147.495C89.538 148.375 89.12 149.134 88.702 149.772C88.306 150.41 87.855 150.927 87.349 151.323C86.865 151.741 86.315 152.049 85.699 152.247C85.105 152.445 84.401 152.544 83.587 152.544C82.905 152.544 82.278 152.489 81.706 152.379C81.156 152.269 80.694 152.126 80.32 151.95L81.079 148.551C81.519 148.749 81.904 148.881 82.234 148.947C82.586 149.035 82.96 149.079 83.356 149.079C84.148 149.079 84.786 148.815 85.27 148.287C85.754 147.759 86.139 147.132 86.425 146.406C85.457 144.47 84.489 142.259 83.521 139.773C82.553 137.265 81.673 134.504 80.881 131.49H85.105C85.303 132.304 85.523 133.173 85.765 134.097C86.029 135.021 86.304 135.945 86.59 136.869C86.876 137.793 87.173 138.706 87.481 139.608C87.811 140.488 88.141 141.313 88.471 142.083C88.691 141.313 88.922 140.488 89.164 139.608C89.406 138.706 89.637 137.804 89.857 136.902C90.077 135.978 90.286 135.054 90.484 134.13C90.704 133.206 90.902 132.326 91.078 131.49H95.236ZM98.569 131.985C99.295 131.787 100.186 131.6 101.242 131.424C102.32 131.248 103.486 131.16 104.74 131.16C105.972 131.16 106.995 131.336 107.809 131.688C108.623 132.018 109.261 132.502 109.723 133.14C110.207 133.756 110.548 134.504 110.746 135.384C110.944 136.242 111.043 137.199 111.043 138.255V147H106.984V138.783C106.984 137.331 106.819 136.286 106.489 135.648C106.159 135.01 105.488 134.691 104.476 134.691C104.168 134.691 103.86 134.702 103.552 134.724C103.266 134.746 102.958 134.779 102.628 134.823V147H98.569V131.985ZM114.772 139.245C114.772 138.123 114.948 137.067 115.3 136.077C115.652 135.087 116.191 134.229 116.917 133.503C117.643 132.755 118.556 132.172 119.656 131.754C120.778 131.314 122.109 131.094 123.649 131.094C124.573 131.094 125.409 131.16 126.157 131.292C126.905 131.424 127.664 131.644 128.434 131.952L127.543 135.219C127.103 135.065 126.608 134.933 126.058 134.823C125.53 134.691 124.848 134.625 124.012 134.625C123.044 134.625 122.23 134.746 121.57 134.988C120.932 135.208 120.415 135.527 120.019 135.945C119.623 136.341 119.337 136.825 119.161 137.397C118.985 137.969 118.897 138.585 118.897 139.245C118.897 140.675 119.293 141.797 120.085 142.611C120.899 143.425 122.274 143.832 124.21 143.832C124.848 143.832 125.508 143.788 126.19 143.7C126.894 143.612 127.532 143.469 128.104 143.271L128.698 146.604C128.126 146.824 127.433 147 126.619 147.132C125.805 147.286 124.848 147.363 123.748 147.363C122.164 147.363 120.8 147.154 119.656 146.736C118.534 146.318 117.61 145.746 116.884 145.02C116.158 144.294 115.619 143.436 115.267 142.446C114.937 141.456 114.772 140.389 114.772 139.245Z" fill="#FFD15C"/>
<path d="M151.567 147V134.856H148.168V131.49H151.567V130.599C151.567 129.345 151.743 128.311 152.095 127.497C152.469 126.661 152.964 126.001 153.58 125.517C154.196 125.011 154.9 124.659 155.692 124.461C156.484 124.241 157.298 124.131 158.134 124.131C158.992 124.131 159.872 124.208 160.774 124.362C161.676 124.516 162.49 124.769 163.216 125.121L162.523 128.421C162.017 128.245 161.379 128.069 160.609 127.893C159.861 127.695 159.146 127.596 158.464 127.596C158.09 127.596 157.727 127.629 157.375 127.695C157.045 127.761 156.748 127.904 156.484 128.124C156.242 128.344 156.044 128.663 155.89 129.081C155.736 129.477 155.659 130.005 155.659 130.665V131.49H162.028V134.856H155.659V147H151.567ZM178.264 146.472C177.516 146.67 176.603 146.868 175.525 147.066C174.469 147.264 173.314 147.363 172.06 147.363C170.784 147.363 169.739 147.187 168.925 146.835C168.111 146.483 167.462 145.988 166.978 145.35C166.516 144.69 166.197 143.92 166.021 143.04C165.845 142.16 165.757 141.192 165.757 140.136V131.49H169.816V139.608C169.816 141.038 169.981 142.105 170.311 142.809C170.663 143.491 171.334 143.832 172.324 143.832C172.94 143.832 173.556 143.777 174.172 143.667V131.49H178.264V146.472ZM182.719 131.985C183.445 131.787 184.336 131.6 185.392 131.424C186.47 131.248 187.636 131.16 188.89 131.16C190.122 131.16 191.145 131.336 191.959 131.688C192.773 132.018 193.411 132.502 193.873 133.14C194.357 133.756 194.698 134.504 194.896 135.384C195.094 136.242 195.193 137.199 195.193 138.255V147H191.134V138.783C191.134 137.331 190.969 136.286 190.639 135.648C190.309 135.01 189.638 134.691 188.626 134.691C188.318 134.691 188.01 134.702 187.702 134.724C187.416 134.746 187.108 134.779 186.778 134.823V147H182.719V131.985ZM198.922 139.245C198.922 138.123 199.098 137.067 199.45 136.077C199.802 135.087 200.341 134.229 201.067 133.503C201.793 132.755 202.706 132.172 203.806 131.754C204.928 131.314 206.259 131.094 207.799 131.094C208.723 131.094 209.559 131.16 210.307 131.292C211.055 131.424 211.814 131.644 212.584 131.952L211.693 135.219C211.253 135.065 210.758 134.933 210.208 134.823C209.68 134.691 208.998 134.625 208.162 134.625C207.194 134.625 206.38 134.746 205.72 134.988C205.082 135.208 204.565 135.527 204.169 135.945C203.773 136.341 203.487 136.825 203.311 137.397C203.135 137.969 203.047 138.585 203.047 139.245C203.047 140.675 203.443 141.797 204.235 142.611C205.049 143.425 206.424 143.832 208.36 143.832C208.998 143.832 209.658 143.788 210.34 143.7C211.044 143.612 211.682 143.469 212.254 143.271L212.848 146.604C212.276 146.824 211.583 147 210.769 147.132C209.955 147.286 208.998 147.363 207.898 147.363C206.314 147.363 204.95 147.154 203.806 146.736C202.684 146.318 201.76 145.746 201.034 145.02C200.308 144.294 199.769 143.436 199.417 142.446C199.087 141.456 198.922 140.389 198.922 139.245ZM219.019 134.856H215.488V131.49H219.019V127.596L223.078 126.936V131.49H229.579V134.856H223.078V141.126C223.078 141.698 223.133 142.16 223.243 142.512C223.353 142.864 223.507 143.139 223.705 143.337C223.903 143.535 224.145 143.667 224.431 143.733C224.717 143.799 225.036 143.832 225.388 143.832C225.762 143.832 226.103 143.821 226.411 143.799C226.741 143.777 227.049 143.744 227.335 143.7C227.643 143.634 227.951 143.546 228.259 143.436C228.589 143.326 228.941 143.183 229.315 143.007L229.876 146.505C229.128 146.813 228.314 147.033 227.434 147.165C226.576 147.297 225.74 147.363 224.926 147.363C223.98 147.363 223.144 147.286 222.418 147.132C221.692 146.978 221.076 146.681 220.57 146.241C220.064 145.801 219.679 145.185 219.415 144.393C219.151 143.579 219.019 142.523 219.019 141.225V134.856ZM240.502 127.035C240.502 127.827 240.249 128.454 239.743 128.916C239.237 129.378 238.632 129.609 237.928 129.609C237.224 129.609 236.619 129.378 236.113 128.916C235.629 128.454 235.387 127.827 235.387 127.035C235.387 126.221 235.629 125.583 236.113 125.121C236.619 124.659 237.224 124.428 237.928 124.428C238.632 124.428 239.237 124.659 239.743 125.121C240.249 125.583 240.502 126.221 240.502 127.035ZM246.541 146.34C245.705 146.736 244.913 147 244.165 147.132C243.439 147.286 242.768 147.363 242.152 147.363C241.096 147.363 240.205 147.209 239.479 146.901C238.775 146.593 238.203 146.153 237.763 145.581C237.345 144.987 237.048 144.272 236.872 143.436C236.696 142.6 236.608 141.643 236.608 140.565V134.856H232.318V131.49H240.667V141.093C240.667 142.017 240.832 142.71 241.162 143.172C241.514 143.612 242.086 143.832 242.878 143.832C243.252 143.832 243.703 143.788 244.231 143.7C244.759 143.59 245.353 143.381 246.013 143.073L246.541 146.34ZM263.536 139.212C263.536 140.444 263.36 141.566 263.008 142.578C262.656 143.568 262.161 144.426 261.523 145.152C260.885 145.878 260.115 146.439 259.213 146.835C258.333 147.231 257.343 147.429 256.243 147.429C255.143 147.429 254.142 147.231 253.24 146.835C252.36 146.439 251.59 145.878 250.93 145.152C250.292 144.426 249.797 143.568 249.445 142.578C249.093 141.566 248.917 140.444 248.917 139.212C248.917 138.002 249.093 136.902 249.445 135.912C249.819 134.9 250.325 134.042 250.963 133.338C251.623 132.612 252.404 132.062 253.306 131.688C254.208 131.292 255.187 131.094 256.243 131.094C257.321 131.094 258.3 131.292 259.18 131.688C260.082 132.062 260.852 132.612 261.49 133.338C262.15 134.042 262.656 134.9 263.008 135.912C263.36 136.902 263.536 138.002 263.536 139.212ZM253.042 139.245C253.042 140.631 253.284 141.753 253.768 142.611C254.274 143.469 255.077 143.898 256.177 143.898C257.233 143.898 258.025 143.469 258.553 142.611C259.103 141.753 259.378 140.631 259.378 139.245C259.378 137.859 259.125 136.748 258.619 135.912C258.135 135.054 257.343 134.625 256.243 134.625C255.187 134.625 254.384 135.054 253.834 135.912C253.306 136.748 253.042 137.859 253.042 139.245ZM266.869 131.985C267.595 131.787 268.486 131.6 269.542 131.424C270.62 131.248 271.786 131.16 273.04 131.16C274.272 131.16 275.295 131.336 276.109 131.688C276.923 132.018 277.561 132.502 278.023 133.14C278.507 133.756 278.848 134.504 279.046 135.384C279.244 136.242 279.343 137.199 279.343 138.255V147H275.284V138.783C275.284 137.331 275.119 136.286 274.789 135.648C274.459 135.01 273.788 134.691 272.776 134.691C272.468 134.691 272.16 134.702 271.852 134.724C271.566 134.746 271.258 134.779 270.928 134.823V147H266.869V131.985ZM490.444 138.222C490.444 140.928 491.038 143.282 492.226 145.284C493.436 147.264 495.097 148.87 497.209 150.102L495.328 152.61C492.336 150.96 490.147 148.903 488.761 146.439C487.375 143.975 486.682 141.236 486.682 138.222C486.682 135.186 487.397 132.403 488.827 129.873C490.257 127.321 492.468 125.22 495.46 123.57L497.341 126.078C495.229 127.31 493.546 128.96 492.292 131.028C491.06 133.096 490.444 135.494 490.444 138.222ZM510.112 138.222C510.112 135.494 509.485 133.096 508.231 131.028C506.999 128.96 505.327 127.31 503.215 126.078L505.096 123.57C508.088 125.22 510.299 127.321 511.729 129.873C513.159 132.403 513.874 135.186 513.874 138.222C513.874 141.236 513.181 143.975 511.795 146.439C510.409 148.903 508.22 150.96 505.228 152.61L503.347 150.102C505.459 148.87 507.109 147.264 508.297 145.284C509.507 143.282 510.112 140.928 510.112 138.222ZM523.411 138.222C524.599 138.442 525.446 138.926 525.952 139.674C526.48 140.422 526.744 141.5 526.744 142.908V146.637C526.744 147.561 526.876 148.232 527.14 148.65C527.404 149.068 527.888 149.277 528.592 149.277H531.661V152.445H528.229C526.249 152.445 524.874 152.016 524.104 151.158C523.356 150.3 522.982 149.057 522.982 147.429V142.578C522.982 141.654 522.839 140.961 522.553 140.499C522.267 140.015 521.783 139.773 521.101 139.773H519.319V136.605H521.101C521.783 136.605 522.267 136.374 522.553 135.912C522.839 135.428 522.982 134.735 522.982 133.833V128.949C522.982 127.321 523.356 126.078 524.104 125.22C524.874 124.362 526.249 123.933 528.229 123.933H531.661V127.101H528.592C527.888 127.101 527.404 127.31 527.14 127.728C526.876 128.124 526.744 128.795 526.744 129.741V133.47C526.744 134.878 526.48 135.956 525.952 136.704C525.446 137.452 524.599 137.958 523.411 138.222ZM134.869 208.856H131.338V205.49H134.869V201.596L138.928 200.936V205.49H145.429V208.856H138.928V215.126C138.928 215.698 138.983 216.16 139.093 216.512C139.203 216.864 139.357 217.139 139.555 217.337C139.753 217.535 139.995 217.667 140.281 217.733C140.567 217.799 140.886 217.832 141.238 217.832C141.612 217.832 141.953 217.821 142.261 217.799C142.591 217.777 142.899 217.744 143.185 217.7C143.493 217.634 143.801 217.546 144.109 217.436C144.439 217.326 144.791 217.183 145.165 217.007L145.726 220.505C144.978 220.813 144.164 221.033 143.284 221.165C142.426 221.297 141.59 221.363 140.776 221.363C139.83 221.363 138.994 221.286 138.268 221.132C137.542 220.978 136.926 220.681 136.42 220.241C135.914 219.801 135.529 219.185 135.265 218.393C135.001 217.579 134.869 216.523 134.869 215.225V208.856ZM161.401 209.615C161.137 209.549 160.818 209.483 160.444 209.417C160.092 209.351 159.729 209.296 159.355 209.252C158.981 209.186 158.618 209.142 158.266 209.12C157.914 209.098 157.617 209.087 157.375 209.087C156.803 209.087 156.242 209.12 155.692 209.186C155.142 209.23 154.581 209.329 154.009 209.483V221H149.917V206.513C150.995 206.117 152.095 205.798 153.217 205.556C154.361 205.314 155.692 205.193 157.21 205.193C157.43 205.193 157.738 205.204 158.134 205.226C158.552 205.248 158.992 205.292 159.454 205.358C159.916 205.402 160.378 205.468 160.84 205.556C161.324 205.622 161.753 205.721 162.127 205.853L161.401 209.615ZM179.386 205.49C178.968 206.942 178.561 208.372 178.165 209.78C177.791 211.166 177.395 212.53 176.977 213.872C176.559 215.192 176.108 216.49 175.624 217.766C175.162 219.042 174.656 220.285 174.106 221.495C173.688 222.375 173.27 223.134 172.852 223.772C172.456 224.41 172.005 224.927 171.499 225.323C171.015 225.741 170.465 226.049 169.849 226.247C169.255 226.445 168.551 226.544 167.737 226.544C167.055 226.544 166.428 226.489 165.856 226.379C165.306 226.269 164.844 226.126 164.47 225.95L165.229 222.551C165.669 222.749 166.054 222.881 166.384 222.947C166.736 223.035 167.11 223.079 167.506 223.079C168.298 223.079 168.936 222.815 169.42 222.287C169.904 221.759 170.289 221.132 170.575 220.406C169.607 218.47 168.639 216.259 167.671 213.773C166.703 211.265 165.823 208.504 165.031 205.49H169.255C169.453 206.304 169.673 207.173 169.915 208.097C170.179 209.021 170.454 209.945 170.74 210.869C171.026 211.793 171.323 212.706 171.631 213.608C171.961 214.488 172.291 215.313 172.621 216.083C172.841 215.313 173.072 214.488 173.314 213.608C173.556 212.706 173.787 211.804 174.007 210.902C174.227 209.978 174.436 209.054 174.634 208.13C174.854 207.206 175.052 206.326 175.228 205.49H179.386ZM186.811 212.222C187.999 212.442 188.846 212.926 189.352 213.674C189.88 214.422 190.144 215.5 190.144 216.908V220.637C190.144 221.561 190.276 222.232 190.54 222.65C190.804 223.068 191.288 223.277 191.992 223.277H195.061V226.445H191.629C189.649 226.445 188.274 226.016 187.504 225.158C186.756 224.3 186.382 223.057 186.382 221.429V216.578C186.382 215.654 186.239 214.961 185.953 214.499C185.667 214.015 185.183 213.773 184.501 213.773H182.719V210.605H184.501C185.183 210.605 185.667 210.374 185.953 209.912C186.239 209.428 186.382 208.735 186.382 207.833V202.949C186.382 201.321 186.756 200.078 187.504 199.22C188.274 198.362 189.649 197.933 191.629 197.933H195.061V201.101H191.992C191.288 201.101 190.804 201.31 190.54 201.728C190.276 202.124 190.144 202.795 190.144 203.741V207.47C190.144 208.878 189.88 209.956 189.352 210.704C188.846 211.452 187.999 211.958 186.811 212.222ZM195.061 246.615C194.797 246.549 194.478 246.483 194.104 246.417C193.752 246.351 193.389 246.296 193.015 246.252C192.641 246.186 192.278 246.142 191.926 246.12C191.574 246.098 191.277 246.087 191.035 246.087C190.463 246.087 189.902 246.12 189.352 246.186C188.802 246.23 188.241 246.329 187.669 246.483V258H183.577V243.513C184.655 243.117 185.755 242.798 186.877 242.556C188.021 242.314 189.352 242.193 190.87 242.193C191.09 242.193 191.398 242.204 191.794 242.226C192.212 242.248 192.652 242.292 193.114 242.358C193.576 242.402 194.038 242.468 194.5 242.556C194.984 242.622 195.413 242.721 195.787 242.853L195.061 246.615ZM198.493 250.377C198.493 249.013 198.702 247.814 199.12 246.78C199.538 245.746 200.088 244.888 200.77 244.206C201.452 243.502 202.233 242.974 203.113 242.622C203.993 242.27 204.895 242.094 205.819 242.094C208.107 242.094 209.845 242.776 211.033 244.14C212.221 245.482 212.815 247.451 212.815 250.047C212.815 250.311 212.804 250.586 212.782 250.872C212.782 251.158 212.771 251.389 212.749 251.565H202.684C202.684 252.577 203.102 253.38 203.938 253.974C204.774 254.546 205.852 254.832 207.172 254.832C207.986 254.832 208.756 254.744 209.482 254.568C210.23 254.392 210.857 254.216 211.363 254.04L211.924 257.505C211.22 257.747 210.472 257.945 209.68 258.099C208.888 258.275 207.997 258.363 207.007 258.363C205.687 258.363 204.499 258.198 203.443 257.868C202.409 257.516 201.518 257.01 200.77 256.35C200.044 255.668 199.483 254.832 199.087 253.842C198.691 252.852 198.493 251.697 198.493 250.377ZM208.888 248.76C208.888 248.342 208.833 247.946 208.723 247.572C208.613 247.176 208.437 246.824 208.195 246.516C207.953 246.208 207.645 245.966 207.271 245.79C206.897 245.592 206.435 245.493 205.885 245.493C205.357 245.493 204.895 245.581 204.499 245.757C204.125 245.933 203.806 246.175 203.542 246.483C203.3 246.791 203.102 247.143 202.948 247.539C202.816 247.935 202.728 248.342 202.684 248.76H208.888ZM219.019 245.856H215.488V242.49H219.019V238.596L223.078 237.936V242.49H229.579V245.856H223.078V252.126C223.078 252.698 223.133 253.16 223.243 253.512C223.353 253.864 223.507 254.139 223.705 254.337C223.903 254.535 224.145 254.667 224.431 254.733C224.717 254.799 225.036 254.832 225.388 254.832C225.762 254.832 226.103 254.821 226.411 254.799C226.741 254.777 227.049 254.744 227.335 254.7C227.643 254.634 227.951 254.546 228.259 254.436C228.589 254.326 228.941 254.183 229.315 254.007L229.876 257.505C229.128 257.813 228.314 258.033 227.434 258.165C226.576 258.297 225.74 258.363 224.926 258.363C223.98 258.363 223.144 258.286 222.418 258.132C221.692 257.978 221.076 257.681 220.57 257.241C220.064 256.801 219.679 256.185 219.415 255.393C219.151 254.579 219.019 253.523 219.019 252.225V245.856ZM245.584 257.472C244.836 257.67 243.923 257.868 242.845 258.066C241.789 258.264 240.634 258.363 239.38 258.363C238.104 258.363 237.059 258.187 236.245 257.835C235.431 257.483 234.782 256.988 234.298 256.35C233.836 255.69 233.517 254.92 233.341 254.04C233.165 253.16 233.077 252.192 233.077 251.136V242.49H237.136V250.608C237.136 252.038 237.301 253.105 237.631 253.809C237.983 254.491 238.654 254.832 239.644 254.832C240.26 254.832 240.876 254.777 241.492 254.667V242.49H245.584V257.472ZM262.381 246.615C262.117 246.549 261.798 246.483 261.424 246.417C261.072 246.351 260.709 246.296 260.335 246.252C259.961 246.186 259.598 246.142 259.246 246.12C258.894 246.098 258.597 246.087 258.355 246.087C257.783 246.087 257.222 246.12 256.672 246.186C256.122 246.23 255.561 246.329 254.989 246.483V258H250.897V243.513C251.975 243.117 253.075 242.798 254.197 242.556C255.341 242.314 256.672 242.193 258.19 242.193C258.41 242.193 258.718 242.204 259.114 242.226C259.532 242.248 259.972 242.292 260.434 242.358C260.896 242.402 261.358 242.468 261.82 242.556C262.304 242.622 262.733 242.721 263.107 242.853L262.381 246.615ZM266.869 242.985C267.595 242.787 268.486 242.6 269.542 242.424C270.62 242.248 271.786 242.16 273.04 242.16C274.272 242.16 275.295 242.336 276.109 242.688C276.923 243.018 277.561 243.502 278.023 244.14C278.507 244.756 278.848 245.504 279.046 246.384C279.244 247.242 279.343 248.199 279.343 249.255V258H275.284V249.783C275.284 248.331 275.119 247.286 274.789 246.648C274.459 246.01 273.788 245.691 272.776 245.691C272.468 245.691 272.16 245.702 271.852 245.724C271.566 245.746 271.258 245.779 270.928 245.823V258H266.869V242.985ZM404.017 258V245.856H400.618V242.49H404.017V241.599C404.017 240.345 404.193 239.311 404.545 238.497C404.919 237.661 405.414 237.001 406.03 236.517C406.646 236.011 407.35 235.659 408.142 235.461C408.934 235.241 409.748 235.131 410.584 235.131C411.442 235.131 412.322 235.208 413.224 235.362C414.126 235.516 414.94 235.769 415.666 236.121L414.973 239.421C414.467 239.245 413.829 239.069 413.059 238.893C412.311 238.695 411.596 238.596 410.914 238.596C410.54 238.596 410.177 238.629 409.825 238.695C409.495 238.761 409.198 238.904 408.934 239.124C408.692 239.344 408.494 239.663 408.34 240.081C408.186 240.477 408.109 241.005 408.109 241.665V242.49H414.478V245.856H408.109V258H404.017ZM417.283 250.377C417.283 249.013 417.492 247.814 417.91 246.78C418.328 245.746 418.878 244.888 419.56 244.206C420.242 243.502 421.023 242.974 421.903 242.622C422.783 242.27 423.685 242.094 424.609 242.094C426.897 242.094 428.635 242.776 429.823 244.14C431.011 245.482 431.605 247.451 431.605 250.047C431.605 250.311 431.594 250.586 431.572 250.872C431.572 251.158 431.561 251.389 431.539 251.565H421.474C421.474 252.577 421.892 253.38 422.728 253.974C423.564 254.546 424.642 254.832 425.962 254.832C426.776 254.832 427.546 254.744 428.272 254.568C429.02 254.392 429.647 254.216 430.153 254.04L430.714 257.505C430.01 257.747 429.262 257.945 428.47 258.099C427.678 258.275 426.787 258.363 425.797 258.363C424.477 258.363 423.289 258.198 422.233 257.868C421.199 257.516 420.308 257.01 419.56 256.35C418.834 255.668 418.273 254.832 417.877 253.842C417.481 252.852 417.283 251.697 417.283 250.377ZM427.678 248.76C427.678 248.342 427.623 247.946 427.513 247.572C427.403 247.176 427.227 246.824 426.985 246.516C426.743 246.208 426.435 245.966 426.061 245.79C425.687 245.592 425.225 245.493 424.675 245.493C424.147 245.493 423.685 245.581 423.289 245.757C422.915 245.933 422.596 246.175 422.332 246.483C422.09 246.791 421.892 247.143 421.738 247.539C421.606 247.935 421.518 248.342 421.474 248.76H427.678ZM437.809 245.856H434.278V242.49H437.809V238.596L441.868 237.936V242.49H448.369V245.856H441.868V252.126C441.868 252.698 441.923 253.16 442.033 253.512C442.143 253.864 442.297 254.139 442.495 254.337C442.693 254.535 442.935 254.667 443.221 254.733C443.507 254.799 443.826 254.832 444.178 254.832C444.552 254.832 444.893 254.821 445.201 254.799C445.531 254.777 445.839 254.744 446.125 254.7C446.433 254.634 446.741 254.546 447.049 254.436C447.379 254.326 447.731 254.183 448.105 254.007L448.666 257.505C447.918 257.813 447.104 258.033 446.224 258.165C445.366 258.297 444.53 258.363 443.716 258.363C442.77 258.363 441.934 258.286 441.208 258.132C440.482 257.978 439.866 257.681 439.36 257.241C438.854 256.801 438.469 256.185 438.205 255.393C437.941 254.579 437.809 253.523 437.809 252.225V245.856ZM451.372 250.245C451.372 249.123 451.548 248.067 451.9 247.077C452.252 246.087 452.791 245.229 453.517 244.503C454.243 243.755 455.156 243.172 456.256 242.754C457.378 242.314 458.709 242.094 460.249 242.094C461.173 242.094 462.009 242.16 462.757 242.292C463.505 242.424 464.264 242.644 465.034 242.952L464.143 246.219C463.703 246.065 463.208 245.933 462.658 245.823C462.13 245.691 461.448 245.625 460.612 245.625C459.644 245.625 458.83 245.746 458.17 245.988C457.532 246.208 457.015 246.527 456.619 246.945C456.223 247.341 455.937 247.825 455.761 248.397C455.585 248.969 455.497 249.585 455.497 250.245C455.497 251.675 455.893 252.797 456.685 253.611C457.499 254.425 458.874 254.832 460.81 254.832C461.448 254.832 462.108 254.788 462.79 254.7C463.494 254.612 464.132 254.469 464.704 254.271L465.298 257.604C464.726 257.824 464.033 258 463.219 258.132C462.405 258.286 461.448 258.363 460.348 258.363C458.764 258.363 457.4 258.154 456.256 257.736C455.134 257.318 454.21 256.746 453.484 256.02C452.758 255.294 452.219 254.436 451.867 253.446C451.537 252.456 451.372 251.389 451.372 250.245ZM468.829 258V235.791L472.888 235.098V242.622C473.218 242.512 473.614 242.413 474.076 242.325C474.538 242.215 474.945 242.16 475.297 242.16C476.441 242.16 477.398 242.336 478.168 242.688C478.938 243.018 479.554 243.502 480.016 244.14C480.478 244.756 480.808 245.504 481.006 246.384C481.204 247.242 481.303 248.199 481.303 249.255V258H477.244V249.783C477.244 248.331 477.079 247.286 476.749 246.648C476.419 246.01 475.792 245.691 474.868 245.691C474.494 245.691 474.12 245.735 473.746 245.823C473.394 245.911 473.108 245.988 472.888 246.054V258H468.829ZM490.444 249.222C490.444 251.928 491.038 254.282 492.226 256.284C493.436 258.264 495.097 259.87 497.209 261.102L495.328 263.61C492.336 261.96 490.147 259.903 488.761 257.439C487.375 254.975 486.682 252.236 486.682 249.222C486.682 246.186 487.397 243.403 488.827 240.873C490.257 238.321 492.468 236.22 495.46 234.57L497.341 237.078C495.229 238.31 493.546 239.96 492.292 242.028C491.06 244.096 490.444 246.494 490.444 249.222ZM508.594 258.429C507.274 258.429 506.163 258.253 505.261 257.901C504.381 257.527 503.677 256.999 503.149 256.317C502.621 255.635 502.247 254.81 502.027 253.842C501.807 252.874 501.697 251.796 501.697 250.608V237.573H505.789V250.344C505.789 251.202 505.833 251.928 505.921 252.522C506.009 253.094 506.152 253.556 506.35 253.908C506.57 254.26 506.867 254.513 507.241 254.667C507.615 254.821 508.088 254.898 508.66 254.898C509.232 254.898 509.705 254.821 510.079 254.667C510.453 254.513 510.75 254.26 510.97 253.908C511.19 253.534 511.344 253.061 511.432 252.489C511.52 251.895 511.564 251.169 511.564 250.311V237.573H515.623V250.608C515.623 251.796 515.513 252.874 515.293 253.842C515.073 254.81 514.688 255.635 514.138 256.317C513.588 256.999 512.862 257.527 511.96 257.901C511.058 258.253 509.936 258.429 508.594 258.429ZM524.302 237.342C525.468 237.342 526.524 237.474 527.47 237.738C528.416 238.002 529.23 238.409 529.912 238.959C530.594 239.509 531.111 240.213 531.463 241.071C531.837 241.907 532.024 242.897 532.024 244.041C532.024 245.229 531.782 246.307 531.298 247.275C530.814 248.243 530.011 248.98 528.889 249.486C529.263 250.058 529.659 250.696 530.077 251.4C530.495 252.082 530.902 252.808 531.298 253.578C531.694 254.326 532.068 255.085 532.42 255.855C532.794 256.603 533.113 257.318 533.377 258H529.12C528.614 256.68 528.02 255.415 527.338 254.205C526.678 252.973 525.963 251.73 525.193 250.476H523.081V258H519.022V237.87C519.418 237.782 519.847 237.705 520.309 237.639C520.793 237.551 521.277 237.496 521.761 237.474C522.245 237.43 522.707 237.397 523.147 237.375C523.587 237.353 523.972 237.342 524.302 237.342ZM527.899 244.008C527.899 242.93 527.569 242.138 526.909 241.632C526.249 241.126 525.38 240.873 524.302 240.873C524.148 240.873 523.961 240.884 523.741 240.906C523.521 240.906 523.301 240.928 523.081 240.972V247.11H523.972C525.358 247.11 526.359 246.846 526.975 246.318C527.591 245.768 527.899 244.998 527.899 244.008ZM549.25 258H536.413V237.573H540.505V254.634H549.25V258ZM560.602 249.222C560.602 246.494 559.975 244.096 558.721 242.028C557.489 239.96 555.817 238.31 553.705 237.078L555.586 234.57C558.578 236.22 560.789 238.321 562.219 240.873C563.649 243.403 564.364 246.186 564.364 249.222C564.364 252.236 563.671 254.975 562.285 257.439C560.899 259.903 558.71 261.96 555.718 263.61L553.837 261.102C555.949 259.87 557.599 258.264 558.787 256.284C559.997 254.282 560.602 251.928 560.602 249.222ZM571.624 260.409C572.02 260.321 572.416 260.244 572.812 260.178C573.23 260.112 573.615 260.013 573.967 259.881C574.341 259.749 574.671 259.562 574.957 259.32C575.243 259.078 575.474 258.748 575.65 258.33C574.814 258.242 574.165 257.912 573.703 257.34C573.241 256.768 573.01 256.13 573.01 255.426C573.01 254.568 573.285 253.864 573.835 253.314C574.407 252.764 575.122 252.489 575.98 252.489C576.904 252.489 577.619 252.797 578.125 253.413C578.653 254.029 578.917 254.865 578.917 255.921C578.917 256.691 578.796 257.461 578.554 258.231C578.312 259.001 577.916 259.716 577.366 260.376C576.838 261.036 576.145 261.608 575.287 262.092C574.429 262.576 573.384 262.895 572.152 263.049L571.624 260.409ZM578.95 245.394C578.95 246.362 578.653 247.099 578.059 247.605C577.465 248.111 576.783 248.364 576.013 248.364C575.617 248.364 575.243 248.298 574.891 248.166C574.539 248.034 574.22 247.847 573.934 247.605C573.67 247.341 573.45 247.033 573.274 246.681C573.12 246.307 573.043 245.878 573.043 245.394C573.043 244.932 573.12 244.525 573.274 244.173C573.45 243.799 573.67 243.491 573.934 243.249C574.22 243.007 574.539 242.82 574.891 242.688C575.243 242.556 575.617 242.49 576.013 242.49C576.783 242.49 577.465 242.743 578.059 243.249C578.653 243.755 578.95 244.47 578.95 245.394ZM140.479 286.156C139.291 285.936 138.433 285.452 137.905 284.704C137.377 283.956 137.113 282.878 137.113 281.47V277.741C137.113 276.817 136.981 276.146 136.717 275.728C136.453 275.31 135.969 275.101 135.265 275.101H132.229V271.933H135.628C136.618 271.933 137.443 272.043 138.103 272.263C138.785 272.483 139.324 272.802 139.72 273.22C140.138 273.638 140.435 274.166 140.611 274.804C140.787 275.42 140.875 276.135 140.875 276.949V281.8C140.875 282.724 141.018 283.428 141.304 283.912C141.59 284.374 142.074 284.605 142.756 284.605H144.571V287.773H142.756C142.074 287.773 141.59 288.015 141.304 288.499C141.018 288.961 140.875 289.643 140.875 290.545V295.429C140.875 296.243 140.787 296.958 140.611 297.574C140.435 298.212 140.138 298.74 139.72 299.158C139.324 299.576 138.785 299.895 138.103 300.115C137.443 300.335 136.618 300.445 135.628 300.445H132.229V297.277H135.265C135.969 297.277 136.453 297.068 136.717 296.65C136.981 296.254 137.113 295.583 137.113 294.637V290.908C137.113 289.5 137.377 288.422 137.905 287.674C138.433 286.926 139.291 286.42 140.479 286.156ZM131.602 324.245C131.602 323.123 131.778 322.067 132.13 321.077C132.482 320.087 133.021 319.229 133.747 318.503C134.473 317.755 135.386 317.172 136.486 316.754C137.608 316.314 138.939 316.094 140.479 316.094C141.403 316.094 142.239 316.16 142.987 316.292C143.735 316.424 144.494 316.644 145.264 316.952L144.373 320.219C143.933 320.065 143.438 319.933 142.888 319.823C142.36 319.691 141.678 319.625 140.842 319.625C139.874 319.625 139.06 319.746 138.4 319.988C137.762 320.208 137.245 320.527 136.849 320.945C136.453 321.341 136.167 321.825 135.991 322.397C135.815 322.969 135.727 323.585 135.727 324.245C135.727 325.675 136.123 326.797 136.915 327.611C137.729 328.425 139.104 328.832 141.04 328.832C141.678 328.832 142.338 328.788 143.02 328.7C143.724 328.612 144.362 328.469 144.934 328.271L145.528 331.604C144.956 331.824 144.263 332 143.449 332.132C142.635 332.286 141.678 332.363 140.578 332.363C138.994 332.363 137.63 332.154 136.486 331.736C135.364 331.318 134.44 330.746 133.714 330.02C132.988 329.294 132.449 328.436 132.097 327.446C131.767 326.456 131.602 325.389 131.602 324.245ZM155.263 329.096C155.703 329.096 156.132 329.096 156.55 329.096C156.968 329.074 157.331 329.041 157.639 328.997V325.433C157.375 325.389 157.056 325.356 156.682 325.334C156.308 325.29 155.967 325.268 155.659 325.268C155.241 325.268 154.834 325.301 154.438 325.367C154.042 325.411 153.69 325.499 153.382 325.631C153.096 325.763 152.865 325.95 152.689 326.192C152.513 326.434 152.425 326.753 152.425 327.149C152.425 327.853 152.689 328.359 153.217 328.667C153.745 328.953 154.427 329.096 155.263 329.096ZM154.9 316.094C156.176 316.094 157.232 316.248 158.068 316.556C158.926 316.842 159.608 317.26 160.114 317.81C160.62 318.338 160.983 318.998 161.203 319.79C161.423 320.56 161.533 321.429 161.533 322.397V331.637C160.939 331.769 160.059 331.923 158.893 332.099C157.727 332.275 156.418 332.363 154.966 332.363C153.976 332.363 153.074 332.275 152.26 332.099C151.468 331.923 150.786 331.637 150.214 331.241C149.642 330.823 149.202 330.295 148.894 329.657C148.586 328.997 148.432 328.194 148.432 327.248C148.432 326.346 148.608 325.587 148.96 324.971C149.312 324.355 149.785 323.86 150.379 323.486C150.973 323.112 151.655 322.848 152.425 322.694C153.195 322.518 153.998 322.43 154.834 322.43C155.89 322.43 156.825 322.518 157.639 322.694V322.199C157.639 321.429 157.397 320.791 156.913 320.285C156.429 319.757 155.593 319.493 154.405 319.493C153.635 319.493 152.887 319.548 152.161 319.658C151.457 319.768 150.885 319.9 150.445 320.054L149.884 316.787C150.39 316.611 151.105 316.457 152.029 316.325C152.953 316.171 153.91 316.094 154.9 316.094ZM168.529 319.856H164.998V316.49H168.529V312.596L172.588 311.936V316.49H179.089V319.856H172.588V326.126C172.588 326.698 172.643 327.16 172.753 327.512C172.863 327.864 173.017 328.139 173.215 328.337C173.413 328.535 173.655 328.667 173.941 328.733C174.227 328.799 174.546 328.832 174.898 328.832C175.272 328.832 175.613 328.821 175.921 328.799C176.251 328.777 176.559 328.744 176.845 328.7C177.153 328.634 177.461 328.546 177.769 328.436C178.099 328.326 178.451 328.183 178.825 328.007L179.386 331.505C178.638 331.813 177.824 332.033 176.944 332.165C176.086 332.297 175.25 332.363 174.436 332.363C173.49 332.363 172.654 332.286 171.928 332.132C171.202 331.978 170.586 331.681 170.08 331.241C169.574 330.801 169.189 330.185 168.925 329.393C168.661 328.579 168.529 327.523 168.529 326.225V319.856ZM182.092 324.245C182.092 323.123 182.268 322.067 182.62 321.077C182.972 320.087 183.511 319.229 184.237 318.503C184.963 317.755 185.876 317.172 186.976 316.754C188.098 316.314 189.429 316.094 190.969 316.094C191.893 316.094 192.729 316.16 193.477 316.292C194.225 316.424 194.984 316.644 195.754 316.952L194.863 320.219C194.423 320.065 193.928 319.933 193.378 319.823C192.85 319.691 192.168 319.625 191.332 319.625C190.364 319.625 189.55 319.746 188.89 319.988C188.252 320.208 187.735 320.527 187.339 320.945C186.943 321.341 186.657 321.825 186.481 322.397C186.305 322.969 186.217 323.585 186.217 324.245C186.217 325.675 186.613 326.797 187.405 327.611C188.219 328.425 189.594 328.832 191.53 328.832C192.168 328.832 192.828 328.788 193.51 328.7C194.214 328.612 194.852 328.469 195.424 328.271L196.018 331.604C195.446 331.824 194.753 332 193.939 332.132C193.125 332.286 192.168 332.363 191.068 332.363C189.484 332.363 188.12 332.154 186.976 331.736C185.854 331.318 184.93 330.746 184.204 330.02C183.478 329.294 182.939 328.436 182.587 327.446C182.257 326.456 182.092 325.389 182.092 324.245ZM199.549 332V309.791L203.608 309.098V316.622C203.938 316.512 204.334 316.413 204.796 316.325C205.258 316.215 205.665 316.16 206.017 316.16C207.161 316.16 208.118 316.336 208.888 316.688C209.658 317.018 210.274 317.502 210.736 318.14C211.198 318.756 211.528 319.504 211.726 320.384C211.924 321.242 212.023 322.199 212.023 323.255V332H207.964V323.783C207.964 322.331 207.799 321.286 207.469 320.648C207.139 320.01 206.512 319.691 205.588 319.691C205.214 319.691 204.84 319.735 204.466 319.823C204.114 319.911 203.828 319.988 203.608 320.054V332H199.549ZM221.164 323.222C221.164 325.928 221.758 328.282 222.946 330.284C224.156 332.264 225.817 333.87 227.929 335.102L226.048 337.61C223.056 335.96 220.867 333.903 219.481 331.439C218.095 328.975 217.402 326.236 217.402 323.222C217.402 320.186 218.117 317.403 219.547 314.873C220.977 312.321 223.188 310.22 226.18 308.57L228.061 311.078C225.949 312.31 224.266 313.96 223.012 316.028C221.78 318.096 221.164 320.494 221.164 323.222ZM232.153 324.377C232.153 323.013 232.362 321.814 232.78 320.78C233.198 319.746 233.748 318.888 234.43 318.206C235.112 317.502 235.893 316.974 236.773 316.622C237.653 316.27 238.555 316.094 239.479 316.094C241.767 316.094 243.505 316.776 244.693 318.14C245.881 319.482 246.475 321.451 246.475 324.047C246.475 324.311 246.464 324.586 246.442 324.872C246.442 325.158 246.431 325.389 246.409 325.565H236.344C236.344 326.577 236.762 327.38 237.598 327.974C238.434 328.546 239.512 328.832 240.832 328.832C241.646 328.832 242.416 328.744 243.142 328.568C243.89 328.392 244.517 328.216 245.023 328.04L245.584 331.505C244.88 331.747 244.132 331.945 243.34 332.099C242.548 332.275 241.657 332.363 240.667 332.363C239.347 332.363 238.159 332.198 237.103 331.868C236.069 331.516 235.178 331.01 234.43 330.35C233.704 329.668 233.143 328.832 232.747 327.842C232.351 326.852 232.153 325.697 232.153 324.377ZM242.548 322.76C242.548 322.342 242.493 321.946 242.383 321.572C242.273 321.176 242.097 320.824 241.855 320.516C241.613 320.208 241.305 319.966 240.931 319.79C240.557 319.592 240.095 319.493 239.545 319.493C239.017 319.493 238.555 319.581 238.159 319.757C237.785 319.933 237.466 320.175 237.202 320.483C236.96 320.791 236.762 321.143 236.608 321.539C236.476 321.935 236.388 322.342 236.344 322.76H242.548ZM257.662 323.222C257.662 320.494 257.035 318.096 255.781 316.028C254.549 313.96 252.877 312.31 250.765 311.078L252.646 308.57C255.638 310.22 257.849 312.321 259.279 314.873C260.709 317.403 261.424 320.186 261.424 323.222C261.424 326.236 260.731 328.975 259.345 331.439C257.959 333.903 255.77 335.96 252.778 337.61L250.897 335.102C253.009 333.87 254.659 332.264 255.847 330.284C257.057 328.282 257.662 325.928 257.662 323.222ZM270.961 323.222C272.149 323.442 272.996 323.926 273.502 324.674C274.03 325.422 274.294 326.5 274.294 327.908V331.637C274.294 332.561 274.426 333.232 274.69 333.65C274.954 334.068 275.438 334.277 276.142 334.277H279.211V337.445H275.779C273.799 337.445 272.424 337.016 271.654 336.158C270.906 335.3 270.532 334.057 270.532 332.429V327.578C270.532 326.654 270.389 325.961 270.103 325.499C269.817 325.015 269.333 324.773 268.651 324.773H266.869V321.605H268.651C269.333 321.605 269.817 321.374 270.103 320.912C270.389 320.428 270.532 319.735 270.532 318.833V313.949C270.532 312.321 270.906 311.078 271.654 310.22C272.424 309.362 273.799 308.933 275.779 308.933H279.211V312.101H276.142C275.438 312.101 274.954 312.31 274.69 312.728C274.426 313.124 274.294 313.795 274.294 314.741V318.47C274.294 319.878 274.03 320.956 273.502 321.704C272.996 322.452 272.149 322.958 270.961 323.222ZM182.092 361.245C182.092 360.123 182.268 359.067 182.62 358.077C182.972 357.087 183.511 356.229 184.237 355.503C184.963 354.755 185.876 354.172 186.976 353.754C188.098 353.314 189.429 353.094 190.969 353.094C191.893 353.094 192.729 353.16 193.477 353.292C194.225 353.424 194.984 353.644 195.754 353.952L194.863 357.219C194.423 357.065 193.928 356.933 193.378 356.823C192.85 356.691 192.168 356.625 191.332 356.625C190.364 356.625 189.55 356.746 188.89 356.988C188.252 357.208 187.735 357.527 187.339 357.945C186.943 358.341 186.657 358.825 186.481 359.397C186.305 359.969 186.217 360.585 186.217 361.245C186.217 362.675 186.613 363.797 187.405 364.611C188.219 365.425 189.594 365.832 191.53 365.832C192.168 365.832 192.828 365.788 193.51 365.7C194.214 365.612 194.852 365.469 195.424 365.271L196.018 368.604C195.446 368.824 194.753 369 193.939 369.132C193.125 369.286 192.168 369.363 191.068 369.363C189.484 369.363 188.12 369.154 186.976 368.736C185.854 368.318 184.93 367.746 184.204 367.02C183.478 366.294 182.939 365.436 182.587 364.446C182.257 363.456 182.092 362.389 182.092 361.245ZM213.046 361.212C213.046 362.444 212.87 363.566 212.518 364.578C212.166 365.568 211.671 366.426 211.033 367.152C210.395 367.878 209.625 368.439 208.723 368.835C207.843 369.231 206.853 369.429 205.753 369.429C204.653 369.429 203.652 369.231 202.75 368.835C201.87 368.439 201.1 367.878 200.44 367.152C199.802 366.426 199.307 365.568 198.955 364.578C198.603 363.566 198.427 362.444 198.427 361.212C198.427 360.002 198.603 358.902 198.955 357.912C199.329 356.9 199.835 356.042 200.473 355.338C201.133 354.612 201.914 354.062 202.816 353.688C203.718 353.292 204.697 353.094 205.753 353.094C206.831 353.094 207.81 353.292 208.69 353.688C209.592 354.062 210.362 354.612 211 355.338C211.66 356.042 212.166 356.9 212.518 357.912C212.87 358.902 213.046 360.002 213.046 361.212ZM202.552 361.245C202.552 362.631 202.794 363.753 203.278 364.611C203.784 365.469 204.587 365.898 205.687 365.898C206.743 365.898 207.535 365.469 208.063 364.611C208.613 363.753 208.888 362.631 208.888 361.245C208.888 359.859 208.635 358.748 208.129 357.912C207.645 357.054 206.853 356.625 205.753 356.625C204.697 356.625 203.894 357.054 203.344 357.912C202.816 358.748 202.552 359.859 202.552 361.245ZM216.379 353.985C217.105 353.787 217.996 353.6 219.052 353.424C220.13 353.248 221.296 353.16 222.55 353.16C223.782 353.16 224.805 353.336 225.619 353.688C226.433 354.018 227.071 354.502 227.533 355.14C228.017 355.756 228.358 356.504 228.556 357.384C228.754 358.242 228.853 359.199 228.853 360.255V369H224.794V360.783C224.794 359.331 224.629 358.286 224.299 357.648C223.969 357.01 223.298 356.691 222.286 356.691C221.978 356.691 221.67 356.702 221.362 356.724C221.076 356.746 220.768 356.779 220.438 356.823V369H216.379V353.985ZM238.654 365.931C239.644 365.931 240.403 365.865 240.931 365.733C241.459 365.579 241.723 365.282 241.723 364.842C241.723 364.556 241.635 364.314 241.459 364.116C241.305 363.918 241.074 363.753 240.766 363.621C240.48 363.467 240.139 363.324 239.743 363.192C239.369 363.06 238.973 362.928 238.555 362.796C237.961 362.62 237.356 362.422 236.74 362.202C236.124 361.96 235.563 361.663 235.057 361.311C234.551 360.959 234.133 360.519 233.803 359.991C233.473 359.441 233.308 358.759 233.308 357.945C233.308 357.285 233.429 356.669 233.671 356.097C233.935 355.503 234.331 354.986 234.859 354.546C235.409 354.084 236.102 353.732 236.938 353.49C237.774 353.226 238.775 353.094 239.941 353.094C240.953 353.094 241.888 353.171 242.746 353.325C243.626 353.479 244.385 353.699 245.023 353.985L244.396 357.417C244.022 357.307 243.439 357.131 242.647 356.889C241.855 356.625 240.964 356.493 239.974 356.493C238.94 356.493 238.236 356.625 237.862 356.889C237.51 357.131 237.334 357.395 237.334 357.681C237.334 357.923 237.411 358.143 237.565 358.341C237.741 358.517 237.961 358.682 238.225 358.836C238.511 358.99 238.83 359.144 239.182 359.298C239.556 359.43 239.952 359.562 240.37 359.694C240.964 359.892 241.58 360.112 242.218 360.354C242.856 360.596 243.428 360.904 243.934 361.278C244.462 361.63 244.891 362.092 245.221 362.664C245.551 363.214 245.716 363.896 245.716 364.71C245.716 365.348 245.595 365.953 245.353 366.525C245.111 367.097 244.704 367.592 244.132 368.01C243.582 368.428 242.856 368.758 241.954 369C241.052 369.242 239.941 369.363 238.621 369.363C237.279 369.363 236.135 369.209 235.189 368.901C234.243 368.593 233.484 368.318 232.912 368.076L233.539 364.677C234.309 364.985 235.123 365.271 235.981 365.535C236.861 365.799 237.752 365.931 238.654 365.931ZM263.536 361.212C263.536 362.444 263.36 363.566 263.008 364.578C262.656 365.568 262.161 366.426 261.523 367.152C260.885 367.878 260.115 368.439 259.213 368.835C258.333 369.231 257.343 369.429 256.243 369.429C255.143 369.429 254.142 369.231 253.24 368.835C252.36 368.439 251.59 367.878 250.93 367.152C250.292 366.426 249.797 365.568 249.445 364.578C249.093 363.566 248.917 362.444 248.917 361.212C248.917 360.002 249.093 358.902 249.445 357.912C249.819 356.9 250.325 356.042 250.963 355.338C251.623 354.612 252.404 354.062 253.306 353.688C254.208 353.292 255.187 353.094 256.243 353.094C257.321 353.094 258.3 353.292 259.18 353.688C260.082 354.062 260.852 354.612 261.49 355.338C262.15 356.042 262.656 356.9 263.008 357.912C263.36 358.902 263.536 360.002 263.536 361.212ZM253.042 361.245C253.042 362.631 253.284 363.753 253.768 364.611C254.274 365.469 255.077 365.898 256.177 365.898C257.233 365.898 258.025 365.469 258.553 364.611C259.103 363.753 259.378 362.631 259.378 361.245C259.378 359.859 259.125 358.748 258.619 357.912C258.135 357.054 257.343 356.625 256.243 356.625C255.187 356.625 254.384 357.054 253.834 357.912C253.306 358.748 253.042 359.859 253.042 361.245ZM280.201 368.34C280.135 368.384 279.981 368.461 279.739 368.571C279.519 368.681 279.222 368.802 278.848 368.934C278.474 369.044 278.012 369.143 277.462 369.231C276.934 369.319 276.329 369.363 275.647 369.363C273.777 369.363 272.413 368.813 271.555 367.713C270.697 366.591 270.268 364.963 270.268 362.829V349.662H265.978V346.296H274.327V363.126C274.327 364.182 274.536 364.897 274.954 365.271C275.372 365.645 275.9 365.832 276.538 365.832C277.352 365.832 278.034 365.722 278.584 365.502C279.134 365.282 279.497 365.139 279.673 365.073L280.201 368.34ZM282.643 361.377C282.643 360.013 282.852 358.814 283.27 357.78C283.688 356.746 284.238 355.888 284.92 355.206C285.602 354.502 286.383 353.974 287.263 353.622C288.143 353.27 289.045 353.094 289.969 353.094C292.257 353.094 293.995 353.776 295.183 355.14C296.371 356.482 296.965 358.451 296.965 361.047C296.965 361.311 296.954 361.586 296.932 361.872C296.932 362.158 296.921 362.389 296.899 362.565H286.834C286.834 363.577 287.252 364.38 288.088 364.974C288.924 365.546 290.002 365.832 291.322 365.832C292.136 365.832 292.906 365.744 293.632 365.568C294.38 365.392 295.007 365.216 295.513 365.04L296.074 368.505C295.37 368.747 294.622 368.945 293.83 369.099C293.038 369.275 292.147 369.363 291.157 369.363C289.837 369.363 288.649 369.198 287.593 368.868C286.559 368.516 285.668 368.01 284.92 367.35C284.194 366.668 283.633 365.832 283.237 364.842C282.841 363.852 282.643 362.697 282.643 361.377ZM293.038 359.76C293.038 359.342 292.983 358.946 292.873 358.572C292.763 358.176 292.587 357.824 292.345 357.516C292.103 357.208 291.795 356.966 291.421 356.79C291.047 356.592 290.585 356.493 290.035 356.493C289.507 356.493 289.045 356.581 288.649 356.757C288.275 356.933 287.956 357.175 287.692 357.483C287.45 357.791 287.252 358.143 287.098 358.539C286.966 358.935 286.878 359.342 286.834 359.76H293.038ZM309.67 366.393C309.67 367.361 309.373 368.098 308.779 368.604C308.185 369.11 307.503 369.363 306.733 369.363C306.337 369.363 305.963 369.297 305.611 369.165C305.259 369.033 304.94 368.846 304.654 368.604C304.39 368.34 304.17 368.032 303.994 367.68C303.84 367.306 303.763 366.877 303.763 366.393C303.763 365.931 303.84 365.524 303.994 365.172C304.17 364.798 304.39 364.49 304.654 364.248C304.94 364.006 305.259 363.819 305.611 363.687C305.963 363.555 306.337 363.489 306.733 363.489C307.503 363.489 308.185 363.742 308.779 364.248C309.373 364.754 309.67 365.469 309.67 366.393ZM316.303 361.377C316.303 360.013 316.512 358.814 316.93 357.78C317.348 356.746 317.898 355.888 318.58 355.206C319.262 354.502 320.043 353.974 320.923 353.622C321.803 353.27 322.705 353.094 323.629 353.094C325.917 353.094 327.655 353.776 328.843 355.14C330.031 356.482 330.625 358.451 330.625 361.047C330.625 361.311 330.614 361.586 330.592 361.872C330.592 362.158 330.581 362.389 330.559 362.565H320.494C320.494 363.577 320.912 364.38 321.748 364.974C322.584 365.546 323.662 365.832 324.982 365.832C325.796 365.832 326.566 365.744 327.292 365.568C328.04 365.392 328.667 365.216 329.173 365.04L329.734 368.505C329.03 368.747 328.282 368.945 327.49 369.099C326.698 369.275 325.807 369.363 324.817 369.363C323.497 369.363 322.309 369.198 321.253 368.868C320.219 368.516 319.328 368.01 318.58 367.35C317.854 366.668 317.293 365.832 316.897 364.842C316.501 363.852 316.303 362.697 316.303 361.377ZM326.698 359.76C326.698 359.342 326.643 358.946 326.533 358.572C326.423 358.176 326.247 357.824 326.005 357.516C325.763 357.208 325.455 356.966 325.081 356.79C324.707 356.592 324.245 356.493 323.695 356.493C323.167 356.493 322.705 356.581 322.309 356.757C321.935 356.933 321.616 357.175 321.352 357.483C321.11 357.791 320.912 358.143 320.758 358.539C320.626 358.935 320.538 359.342 320.494 359.76H326.698ZM346.531 357.615C346.267 357.549 345.948 357.483 345.574 357.417C345.222 357.351 344.859 357.296 344.485 357.252C344.111 357.186 343.748 357.142 343.396 357.12C343.044 357.098 342.747 357.087 342.505 357.087C341.933 357.087 341.372 357.12 340.822 357.186C340.272 357.23 339.711 357.329 339.139 357.483V369H335.047V354.513C336.125 354.117 337.225 353.798 338.347 353.556C339.491 353.314 340.822 353.193 342.34 353.193C342.56 353.193 342.868 353.204 343.264 353.226C343.682 353.248 344.122 353.292 344.584 353.358C345.046 353.402 345.508 353.468 345.97 353.556C346.454 353.622 346.883 353.721 347.257 353.853L346.531 357.615ZM363.361 357.615C363.097 357.549 362.778 357.483 362.404 357.417C362.052 357.351 361.689 357.296 361.315 357.252C360.941 357.186 360.578 357.142 360.226 357.12C359.874 357.098 359.577 357.087 359.335 357.087C358.763 357.087 358.202 357.12 357.652 357.186C357.102 357.23 356.541 357.329 355.969 357.483V369H351.877V354.513C352.955 354.117 354.055 353.798 355.177 353.556C356.321 353.314 357.652 353.193 359.17 353.193C359.39 353.193 359.698 353.204 360.094 353.226C360.512 353.248 360.952 353.292 361.414 353.358C361.876 353.402 362.338 353.468 362.8 353.556C363.284 353.622 363.713 353.721 364.087 353.853L363.361 357.615ZM381.346 361.212C381.346 362.444 381.17 363.566 380.818 364.578C380.466 365.568 379.971 366.426 379.333 367.152C378.695 367.878 377.925 368.439 377.023 368.835C376.143 369.231 375.153 369.429 374.053 369.429C372.953 369.429 371.952 369.231 371.05 368.835C370.17 368.439 369.4 367.878 368.74 367.152C368.102 366.426 367.607 365.568 367.255 364.578C366.903 363.566 366.727 362.444 366.727 361.212C366.727 360.002 366.903 358.902 367.255 357.912C367.629 356.9 368.135 356.042 368.773 355.338C369.433 354.612 370.214 354.062 371.116 353.688C372.018 353.292 372.997 353.094 374.053 353.094C375.131 353.094 376.11 353.292 376.99 353.688C377.892 354.062 378.662 354.612 379.3 355.338C379.96 356.042 380.466 356.9 380.818 357.912C381.17 358.902 381.346 360.002 381.346 361.212ZM370.852 361.245C370.852 362.631 371.094 363.753 371.578 364.611C372.084 365.469 372.887 365.898 373.987 365.898C375.043 365.898 375.835 365.469 376.363 364.611C376.913 363.753 377.188 362.631 377.188 361.245C377.188 359.859 376.935 358.748 376.429 357.912C375.945 357.054 375.153 356.625 374.053 356.625C372.997 356.625 372.194 357.054 371.644 357.912C371.116 358.748 370.852 359.859 370.852 361.245ZM397.021 357.615C396.757 357.549 396.438 357.483 396.064 357.417C395.712 357.351 395.349 357.296 394.975 357.252C394.601 357.186 394.238 357.142 393.886 357.12C393.534 357.098 393.237 357.087 392.995 357.087C392.423 357.087 391.862 357.12 391.312 357.186C390.762 357.23 390.201 357.329 389.629 357.483V369H385.537V354.513C386.615 354.117 387.715 353.798 388.837 353.556C389.981 353.314 391.312 353.193 392.83 353.193C393.05 353.193 393.358 353.204 393.754 353.226C394.172 353.248 394.612 353.292 395.074 353.358C395.536 353.402 395.998 353.468 396.46 353.556C396.944 353.622 397.373 353.721 397.747 353.853L397.021 357.615ZM406.294 360.222C406.294 362.928 406.888 365.282 408.076 367.284C409.286 369.264 410.947 370.87 413.059 372.102L411.178 374.61C408.186 372.96 405.997 370.903 404.611 368.439C403.225 365.975 402.532 363.236 402.532 360.222C402.532 357.186 403.247 354.403 404.677 351.873C406.107 349.321 408.318 347.22 411.31 345.57L413.191 348.078C411.079 349.31 409.396 350.96 408.142 353.028C406.91 355.096 406.294 357.494 406.294 360.222ZM417.283 361.377C417.283 360.013 417.492 358.814 417.91 357.78C418.328 356.746 418.878 355.888 419.56 355.206C420.242 354.502 421.023 353.974 421.903 353.622C422.783 353.27 423.685 353.094 424.609 353.094C426.897 353.094 428.635 353.776 429.823 355.14C431.011 356.482 431.605 358.451 431.605 361.047C431.605 361.311 431.594 361.586 431.572 361.872C431.572 362.158 431.561 362.389 431.539 362.565H421.474C421.474 363.577 421.892 364.38 422.728 364.974C423.564 365.546 424.642 365.832 425.962 365.832C426.776 365.832 427.546 365.744 428.272 365.568C429.02 365.392 429.647 365.216 430.153 365.04L430.714 368.505C430.01 368.747 429.262 368.945 428.47 369.099C427.678 369.275 426.787 369.363 425.797 369.363C424.477 369.363 423.289 369.198 422.233 368.868C421.199 368.516 420.308 368.01 419.56 367.35C418.834 366.668 418.273 365.832 417.877 364.842C417.481 363.852 417.283 362.697 417.283 361.377ZM427.678 359.76C427.678 359.342 427.623 358.946 427.513 358.572C427.403 358.176 427.227 357.824 426.985 357.516C426.743 357.208 426.435 356.966 426.061 356.79C425.687 356.592 425.225 356.493 424.675 356.493C424.147 356.493 423.685 356.581 423.289 356.757C422.915 356.933 422.596 357.175 422.332 357.483C422.09 357.791 421.892 358.143 421.738 358.539C421.606 358.935 421.518 359.342 421.474 359.76H427.678ZM442.792 360.222C442.792 357.494 442.165 355.096 440.911 353.028C439.679 350.96 438.007 349.31 435.895 348.078L437.776 345.57C440.768 347.22 442.979 349.321 444.409 351.873C445.839 354.403 446.554 357.186 446.554 360.222C446.554 363.236 445.861 365.975 444.475 368.439C443.089 370.903 440.9 372.96 437.908 374.61L436.027 372.102C438.139 370.87 439.789 369.264 440.977 367.284C442.187 365.282 442.792 362.928 442.792 360.222ZM453.814 371.409C454.21 371.321 454.606 371.244 455.002 371.178C455.42 371.112 455.805 371.013 456.157 370.881C456.531 370.749 456.861 370.562 457.147 370.32C457.433 370.078 457.664 369.748 457.84 369.33C457.004 369.242 456.355 368.912 455.893 368.34C455.431 367.768 455.2 367.13 455.2 366.426C455.2 365.568 455.475 364.864 456.025 364.314C456.597 363.764 457.312 363.489 458.17 363.489C459.094 363.489 459.809 363.797 460.315 364.413C460.843 365.029 461.107 365.865 461.107 366.921C461.107 367.691 460.986 368.461 460.744 369.231C460.502 370.001 460.106 370.716 459.556 371.376C459.028 372.036 458.335 372.608 457.477 373.092C456.619 373.576 455.574 373.895 454.342 374.049L453.814 371.409ZM461.14 356.394C461.14 357.362 460.843 358.099 460.249 358.605C459.655 359.111 458.973 359.364 458.203 359.364C457.807 359.364 457.433 359.298 457.081 359.166C456.729 359.034 456.41 358.847 456.124 358.605C455.86 358.341 455.64 358.033 455.464 357.681C455.31 357.307 455.233 356.878 455.233 356.394C455.233 355.932 455.31 355.525 455.464 355.173C455.64 354.799 455.86 354.491 456.124 354.249C456.41 354.007 456.729 353.82 457.081 353.688C457.433 353.556 457.807 353.49 458.203 353.49C458.973 353.49 459.655 353.743 460.249 354.249C460.843 354.755 461.14 355.47 461.14 356.394ZM140.479 397.156C139.291 396.936 138.433 396.452 137.905 395.704C137.377 394.956 137.113 393.878 137.113 392.47V388.741C137.113 387.817 136.981 387.146 136.717 386.728C136.453 386.31 135.969 386.101 135.265 386.101H132.229V382.933H135.628C136.618 382.933 137.443 383.043 138.103 383.263C138.785 383.483 139.324 383.802 139.72 384.22C140.138 384.638 140.435 385.166 140.611 385.804C140.787 386.42 140.875 387.135 140.875 387.949V392.8C140.875 393.724 141.018 394.428 141.304 394.912C141.59 395.374 142.074 395.605 142.756 395.605H144.571V398.773H142.756C142.074 398.773 141.59 399.015 141.304 399.499C141.018 399.961 140.875 400.643 140.875 401.545V406.429C140.875 407.243 140.787 407.958 140.611 408.574C140.435 409.212 140.138 409.74 139.72 410.158C139.324 410.576 138.785 410.895 138.103 411.115C137.443 411.335 136.618 411.445 135.628 411.445H132.229V408.277H135.265C135.969 408.277 136.453 408.068 136.717 407.65C136.981 407.254 137.113 406.583 137.113 405.637V401.908C137.113 400.5 137.377 399.422 137.905 398.674C138.433 397.926 139.291 397.42 140.479 397.156ZM56.329 434.156C55.141 433.936 54.283 433.452 53.755 432.704C53.227 431.956 52.963 430.878 52.963 429.47V425.741C52.963 424.817 52.831 424.146 52.567 423.728C52.303 423.31 51.819 423.101 51.115 423.101H48.079V419.933H51.478C52.468 419.933 53.293 420.043 53.953 420.263C54.635 420.483 55.174 420.802 55.57 421.22C55.988 421.638 56.285 422.166 56.461 422.804C56.637 423.42 56.725 424.135 56.725 424.949V429.8C56.725 430.724 56.868 431.428 57.154 431.912C57.44 432.374 57.924 432.605 58.606 432.605H60.421V435.773H58.606C57.924 435.773 57.44 436.015 57.154 436.499C56.868 436.961 56.725 437.643 56.725 438.545V443.429C56.725 444.243 56.637 444.958 56.461 445.574C56.285 446.212 55.988 446.74 55.57 447.158C55.174 447.576 54.635 447.895 53.953 448.115C53.293 448.335 52.468 448.445 51.478 448.445H48.079V445.277H51.115C51.819 445.277 52.303 445.068 52.567 444.65C52.831 444.254 52.963 443.583 52.963 442.637V438.908C52.963 437.5 53.227 436.422 53.755 435.674C54.283 434.926 55.141 434.42 56.329 434.156Z" fill="white"/>
<path d="M303.664 138.75C303.664 140.026 303.895 141.005 304.357 141.687C304.819 142.347 305.545 142.677 306.535 142.677C306.975 142.677 307.382 142.622 307.756 142.512C308.152 142.402 308.504 142.259 308.812 142.083V134.625C308.504 134.559 308.229 134.515 307.987 134.493C307.745 134.471 307.492 134.46 307.228 134.46C304.852 134.46 303.664 135.89 303.664 138.75ZM312.904 145.119C312.904 147.649 312.288 149.519 311.056 150.729C309.846 151.939 307.888 152.544 305.182 152.544C304.214 152.544 303.279 152.445 302.377 152.247C301.497 152.049 300.65 151.818 299.836 151.554L300.595 148.122C301.233 148.364 301.904 148.584 302.608 148.782C303.312 149.002 304.192 149.112 305.248 149.112C305.952 149.112 306.535 149.024 306.997 148.848C307.459 148.694 307.822 148.474 308.086 148.188C308.35 147.902 308.537 147.561 308.647 147.165C308.757 146.791 308.812 146.384 308.812 145.944V145.317C308.24 145.537 307.712 145.702 307.228 145.812C306.766 145.922 306.26 145.977 305.71 145.977C303.686 145.977 302.146 145.339 301.09 144.063C300.056 142.787 299.539 141.016 299.539 138.75C299.539 136.198 300.243 134.295 301.651 133.041C303.059 131.787 304.973 131.16 307.393 131.16C309.087 131.16 310.924 131.435 312.904 131.985V145.119ZM316.303 139.377C316.303 138.013 316.512 136.814 316.93 135.78C317.348 134.746 317.898 133.888 318.58 133.206C319.262 132.502 320.043 131.974 320.923 131.622C321.803 131.27 322.705 131.094 323.629 131.094C325.917 131.094 327.655 131.776 328.843 133.14C330.031 134.482 330.625 136.451 330.625 139.047C330.625 139.311 330.614 139.586 330.592 139.872C330.592 140.158 330.581 140.389 330.559 140.565H320.494C320.494 141.577 320.912 142.38 321.748 142.974C322.584 143.546 323.662 143.832 324.982 143.832C325.796 143.832 326.566 143.744 327.292 143.568C328.04 143.392 328.667 143.216 329.173 143.04L329.734 146.505C329.03 146.747 328.282 146.945 327.49 147.099C326.698 147.275 325.807 147.363 324.817 147.363C323.497 147.363 322.309 147.198 321.253 146.868C320.219 146.516 319.328 146.01 318.58 145.35C317.854 144.668 317.293 143.832 316.897 142.842C316.501 141.852 316.303 140.697 316.303 139.377ZM326.698 137.76C326.698 137.342 326.643 136.946 326.533 136.572C326.423 136.176 326.247 135.824 326.005 135.516C325.763 135.208 325.455 134.966 325.081 134.79C324.707 134.592 324.245 134.493 323.695 134.493C323.167 134.493 322.705 134.581 322.309 134.757C321.935 134.933 321.616 135.175 321.352 135.483C321.11 135.791 320.912 136.143 320.758 136.539C320.626 136.935 320.538 137.342 320.494 137.76H326.698ZM336.829 134.856H333.298V131.49H336.829V127.596L340.888 126.936V131.49H347.389V134.856H340.888V141.126C340.888 141.698 340.943 142.16 341.053 142.512C341.163 142.864 341.317 143.139 341.515 143.337C341.713 143.535 341.955 143.667 342.241 143.733C342.527 143.799 342.846 143.832 343.198 143.832C343.572 143.832 343.913 143.821 344.221 143.799C344.551 143.777 344.859 143.744 345.145 143.7C345.453 143.634 345.761 143.546 346.069 143.436C346.399 143.326 346.751 143.183 347.125 143.007L347.686 146.505C346.938 146.813 346.124 147.033 345.244 147.165C344.386 147.297 343.55 147.363 342.736 147.363C341.79 147.363 340.954 147.286 340.228 147.132C339.502 146.978 338.886 146.681 338.38 146.241C337.874 145.801 337.489 145.185 337.225 144.393C336.961 143.579 336.829 142.523 336.829 141.225V134.856ZM356.332 126.342C358.928 126.342 360.941 126.881 362.371 127.959C363.801 129.015 364.516 130.753 364.516 133.173C364.516 135.615 363.79 137.386 362.338 138.486C360.908 139.564 358.873 140.103 356.233 140.103H354.781V147H350.722V126.837C351.118 126.749 351.558 126.672 352.042 126.606C352.548 126.54 353.054 126.496 353.56 126.474C354.066 126.43 354.561 126.397 355.045 126.375C355.529 126.353 355.958 126.342 356.332 126.342ZM356.794 129.873C356.552 129.873 356.211 129.884 355.771 129.906C355.353 129.906 355.023 129.928 354.781 129.972V136.572H356.431C357.729 136.572 358.708 136.319 359.368 135.813C360.028 135.285 360.358 134.394 360.358 133.14C360.358 131.952 360.028 131.116 359.368 130.632C358.73 130.126 357.872 129.873 356.794 129.873ZM381.181 146.34C381.115 146.384 380.961 146.461 380.719 146.571C380.499 146.681 380.202 146.802 379.828 146.934C379.454 147.044 378.992 147.143 378.442 147.231C377.914 147.319 377.309 147.363 376.627 147.363C374.757 147.363 373.393 146.813 372.535 145.713C371.677 144.591 371.248 142.963 371.248 140.829V127.662H366.958V124.296H375.307V141.126C375.307 142.182 375.516 142.897 375.934 143.271C376.352 143.645 376.88 143.832 377.518 143.832C378.332 143.832 379.014 143.722 379.564 143.502C380.114 143.282 380.477 143.139 380.653 143.073L381.181 146.34ZM398.176 139.212C398.176 140.444 398 141.566 397.648 142.578C397.296 143.568 396.801 144.426 396.163 145.152C395.525 145.878 394.755 146.439 393.853 146.835C392.973 147.231 391.983 147.429 390.883 147.429C389.783 147.429 388.782 147.231 387.88 146.835C387 146.439 386.23 145.878 385.57 145.152C384.932 144.426 384.437 143.568 384.085 142.578C383.733 141.566 383.557 140.444 383.557 139.212C383.557 138.002 383.733 136.902 384.085 135.912C384.459 134.9 384.965 134.042 385.603 133.338C386.263 132.612 387.044 132.062 387.946 131.688C388.848 131.292 389.827 131.094 390.883 131.094C391.961 131.094 392.94 131.292 393.82 131.688C394.722 132.062 395.492 132.612 396.13 133.338C396.79 134.042 397.296 134.9 397.648 135.912C398 136.902 398.176 138.002 398.176 139.212ZM387.682 139.245C387.682 140.631 387.924 141.753 388.408 142.611C388.914 143.469 389.717 143.898 390.817 143.898C391.873 143.898 392.665 143.469 393.193 142.611C393.743 141.753 394.018 140.631 394.018 139.245C394.018 137.859 393.765 136.748 393.259 135.912C392.775 135.054 391.983 134.625 390.883 134.625C389.827 134.625 389.024 135.054 388.474 135.912C387.946 136.748 387.682 137.859 387.682 139.245ZM404.149 134.856H400.618V131.49H404.149V127.596L408.208 126.936V131.49H414.709V134.856H408.208V141.126C408.208 141.698 408.263 142.16 408.373 142.512C408.483 142.864 408.637 143.139 408.835 143.337C409.033 143.535 409.275 143.667 409.561 143.733C409.847 143.799 410.166 143.832 410.518 143.832C410.892 143.832 411.233 143.821 411.541 143.799C411.871 143.777 412.179 143.744 412.465 143.7C412.773 143.634 413.081 143.546 413.389 143.436C413.719 143.326 414.071 143.183 414.445 143.007L415.006 146.505C414.258 146.813 413.444 147.033 412.564 147.165C411.706 147.297 410.87 147.363 410.056 147.363C409.11 147.363 408.274 147.286 407.548 147.132C406.822 146.978 406.206 146.681 405.7 146.241C405.194 145.801 404.809 145.185 404.545 144.393C404.281 143.579 404.149 142.523 404.149 141.225V134.856ZM422.101 143.7C422.211 143.722 422.332 143.733 422.464 143.733C422.596 143.733 422.717 143.733 422.827 143.733C423.751 143.733 424.521 143.557 425.137 143.205C425.775 142.853 426.281 142.369 426.655 141.753C427.051 141.137 427.326 140.411 427.48 139.575C427.656 138.717 427.744 137.782 427.744 136.77C427.744 135.89 427.678 135.032 427.546 134.196C427.414 133.36 427.183 132.623 426.853 131.985C426.523 131.347 426.072 130.841 425.5 130.467C424.928 130.071 424.191 129.873 423.289 129.873C423.113 129.873 422.915 129.884 422.695 129.906C422.475 129.906 422.277 129.928 422.101 129.972V143.7ZM431.869 136.77C431.869 138.662 431.627 140.279 431.143 141.621C430.681 142.941 430.032 144.019 429.196 144.855C428.36 145.691 427.359 146.307 426.193 146.703C425.049 147.077 423.784 147.264 422.398 147.264C421.672 147.264 420.957 147.22 420.253 147.132C419.571 147.066 418.834 146.945 418.042 146.769V126.837C418.966 126.639 419.835 126.507 420.649 126.441C421.463 126.375 422.222 126.342 422.926 126.342C424.268 126.342 425.489 126.54 426.589 126.936C427.711 127.332 428.657 127.959 429.427 128.817C430.197 129.653 430.791 130.731 431.209 132.051C431.649 133.349 431.869 134.922 431.869 136.77ZM441.373 144.096C441.813 144.096 442.242 144.096 442.66 144.096C443.078 144.074 443.441 144.041 443.749 143.997V140.433C443.485 140.389 443.166 140.356 442.792 140.334C442.418 140.29 442.077 140.268 441.769 140.268C441.351 140.268 440.944 140.301 440.548 140.367C440.152 140.411 439.8 140.499 439.492 140.631C439.206 140.763 438.975 140.95 438.799 141.192C438.623 141.434 438.535 141.753 438.535 142.149C438.535 142.853 438.799 143.359 439.327 143.667C439.855 143.953 440.537 144.096 441.373 144.096ZM441.01 131.094C442.286 131.094 443.342 131.248 444.178 131.556C445.036 131.842 445.718 132.26 446.224 132.81C446.73 133.338 447.093 133.998 447.313 134.79C447.533 135.56 447.643 136.429 447.643 137.397V146.637C447.049 146.769 446.169 146.923 445.003 147.099C443.837 147.275 442.528 147.363 441.076 147.363C440.086 147.363 439.184 147.275 438.37 147.099C437.578 146.923 436.896 146.637 436.324 146.241C435.752 145.823 435.312 145.295 435.004 144.657C434.696 143.997 434.542 143.194 434.542 142.248C434.542 141.346 434.718 140.587 435.07 139.971C435.422 139.355 435.895 138.86 436.489 138.486C437.083 138.112 437.765 137.848 438.535 137.694C439.305 137.518 440.108 137.43 440.944 137.43C442 137.43 442.935 137.518 443.749 137.694V137.199C443.749 136.429 443.507 135.791 443.023 135.285C442.539 134.757 441.703 134.493 440.515 134.493C439.745 134.493 438.997 134.548 438.271 134.658C437.567 134.768 436.995 134.9 436.555 135.054L435.994 131.787C436.5 131.611 437.215 131.457 438.139 131.325C439.063 131.171 440.02 131.094 441.01 131.094ZM454.639 134.856H451.108V131.49H454.639V127.596L458.698 126.936V131.49H465.199V134.856H458.698V141.126C458.698 141.698 458.753 142.16 458.863 142.512C458.973 142.864 459.127 143.139 459.325 143.337C459.523 143.535 459.765 143.667 460.051 143.733C460.337 143.799 460.656 143.832 461.008 143.832C461.382 143.832 461.723 143.821 462.031 143.799C462.361 143.777 462.669 143.744 462.955 143.7C463.263 143.634 463.571 143.546 463.879 143.436C464.209 143.326 464.561 143.183 464.935 143.007L465.496 146.505C464.748 146.813 463.934 147.033 463.054 147.165C462.196 147.297 461.36 147.363 460.546 147.363C459.6 147.363 458.764 147.286 458.038 147.132C457.312 146.978 456.696 146.681 456.19 146.241C455.684 145.801 455.299 145.185 455.035 144.393C454.771 143.579 454.639 142.523 454.639 141.225V134.856ZM475.033 144.096C475.473 144.096 475.902 144.096 476.32 144.096C476.738 144.074 477.101 144.041 477.409 143.997V140.433C477.145 140.389 476.826 140.356 476.452 140.334C476.078 140.29 475.737 140.268 475.429 140.268C475.011 140.268 474.604 140.301 474.208 140.367C473.812 140.411 473.46 140.499 473.152 140.631C472.866 140.763 472.635 140.95 472.459 141.192C472.283 141.434 472.195 141.753 472.195 142.149C472.195 142.853 472.459 143.359 472.987 143.667C473.515 143.953 474.197 144.096 475.033 144.096ZM474.67 131.094C475.946 131.094 477.002 131.248 477.838 131.556C478.696 131.842 479.378 132.26 479.884 132.81C480.39 133.338 480.753 133.998 480.973 134.79C481.193 135.56 481.303 136.429 481.303 137.397V146.637C480.709 146.769 479.829 146.923 478.663 147.099C477.497 147.275 476.188 147.363 474.736 147.363C473.746 147.363 472.844 147.275 472.03 147.099C471.238 146.923 470.556 146.637 469.984 146.241C469.412 145.823 468.972 145.295 468.664 144.657C468.356 143.997 468.202 143.194 468.202 142.248C468.202 141.346 468.378 140.587 468.73 139.971C469.082 139.355 469.555 138.86 470.149 138.486C470.743 138.112 471.425 137.848 472.195 137.694C472.965 137.518 473.768 137.43 474.604 137.43C475.66 137.43 476.595 137.518 477.409 137.694V137.199C477.409 136.429 477.167 135.791 476.683 135.285C476.199 134.757 475.363 134.493 474.175 134.493C473.405 134.493 472.657 134.548 471.931 134.658C471.227 134.768 470.655 134.9 470.215 135.054L469.654 131.787C470.16 131.611 470.875 131.457 471.799 131.325C472.723 131.171 473.68 131.094 474.67 131.094Z" fill="#00B2A8"/>
<path d="M306.733 255.096C307.173 255.096 307.602 255.096 308.02 255.096C308.438 255.074 308.801 255.041 309.109 254.997V251.433C308.845 251.389 308.526 251.356 308.152 251.334C307.778 251.29 307.437 251.268 307.129 251.268C306.711 251.268 306.304 251.301 305.908 251.367C305.512 251.411 305.16 251.499 304.852 251.631C304.566 251.763 304.335 251.95 304.159 252.192C303.983 252.434 303.895 252.753 303.895 253.149C303.895 253.853 304.159 254.359 304.687 254.667C305.215 254.953 305.897 255.096 306.733 255.096ZM306.37 242.094C307.646 242.094 308.702 242.248 309.538 242.556C310.396 242.842 311.078 243.26 311.584 243.81C312.09 244.338 312.453 244.998 312.673 245.79C312.893 246.56 313.003 247.429 313.003 248.397V257.637C312.409 257.769 311.529 257.923 310.363 258.099C309.197 258.275 307.888 258.363 306.436 258.363C305.446 258.363 304.544 258.275 303.73 258.099C302.938 257.923 302.256 257.637 301.684 257.241C301.112 256.823 300.672 256.295 300.364 255.657C300.056 254.997 299.902 254.194 299.902 253.248C299.902 252.346 300.078 251.587 300.43 250.971C300.782 250.355 301.255 249.86 301.849 249.486C302.443 249.112 303.125 248.848 303.895 248.694C304.665 248.518 305.468 248.43 306.304 248.43C307.36 248.43 308.295 248.518 309.109 248.694V248.199C309.109 247.429 308.867 246.791 308.383 246.285C307.899 245.757 307.063 245.493 305.875 245.493C305.105 245.493 304.357 245.548 303.631 245.658C302.927 245.768 302.355 245.9 301.915 246.054L301.354 242.787C301.86 242.611 302.575 242.457 303.499 242.325C304.423 242.171 305.38 242.094 306.37 242.094ZM325.906 258C325.664 257.318 325.433 256.691 325.213 256.119C325.015 255.547 324.817 254.997 324.619 254.469C324.443 253.919 324.256 253.358 324.058 252.786C323.882 252.192 323.695 251.543 323.497 250.839C323.277 251.543 323.079 252.181 322.903 252.753C322.727 253.303 322.54 253.853 322.342 254.403C322.166 254.953 321.979 255.514 321.781 256.086C321.583 256.658 321.341 257.296 321.055 258H317.986C317.722 257.032 317.469 255.965 317.227 254.799C317.007 253.611 316.798 252.357 316.6 251.037C316.402 249.695 316.226 248.309 316.072 246.879C315.918 245.449 315.775 243.986 315.643 242.49H319.108C319.196 244.404 319.284 246.274 319.372 248.1C319.482 249.926 319.669 251.807 319.933 253.743C320.219 252.907 320.461 252.137 320.659 251.433C320.879 250.707 321.066 250.025 321.22 249.387C321.396 248.727 321.55 248.1 321.682 247.506C321.836 246.89 321.99 246.263 322.144 245.625H325.081C325.213 246.263 325.345 246.89 325.477 247.506C325.631 248.1 325.785 248.727 325.939 249.387C326.115 250.025 326.291 250.707 326.467 251.433C326.665 252.137 326.896 252.907 327.16 253.743C327.292 252.731 327.402 251.763 327.49 250.839C327.578 249.915 327.644 249.002 327.688 248.1C327.754 247.176 327.798 246.263 327.82 245.361C327.864 244.437 327.908 243.48 327.952 242.49H331.417C331.175 245.504 330.834 248.342 330.394 251.004C329.976 253.666 329.503 255.998 328.975 258H325.906ZM340.393 255.096C340.833 255.096 341.262 255.096 341.68 255.096C342.098 255.074 342.461 255.041 342.769 254.997V251.433C342.505 251.389 342.186 251.356 341.812 251.334C341.438 251.29 341.097 251.268 340.789 251.268C340.371 251.268 339.964 251.301 339.568 251.367C339.172 251.411 338.82 251.499 338.512 251.631C338.226 251.763 337.995 251.95 337.819 252.192C337.643 252.434 337.555 252.753 337.555 253.149C337.555 253.853 337.819 254.359 338.347 254.667C338.875 254.953 339.557 255.096 340.393 255.096ZM340.03 242.094C341.306 242.094 342.362 242.248 343.198 242.556C344.056 242.842 344.738 243.26 345.244 243.81C345.75 244.338 346.113 244.998 346.333 245.79C346.553 246.56 346.663 247.429 346.663 248.397V257.637C346.069 257.769 345.189 257.923 344.023 258.099C342.857 258.275 341.548 258.363 340.096 258.363C339.106 258.363 338.204 258.275 337.39 258.099C336.598 257.923 335.916 257.637 335.344 257.241C334.772 256.823 334.332 256.295 334.024 255.657C333.716 254.997 333.562 254.194 333.562 253.248C333.562 252.346 333.738 251.587 334.09 250.971C334.442 250.355 334.915 249.86 335.509 249.486C336.103 249.112 336.785 248.848 337.555 248.694C338.325 248.518 339.128 248.43 339.964 248.43C341.02 248.43 341.955 248.518 342.769 248.694V248.199C342.769 247.429 342.527 246.791 342.043 246.285C341.559 245.757 340.723 245.493 339.535 245.493C338.765 245.493 338.017 245.548 337.291 245.658C336.587 245.768 336.015 245.9 335.575 246.054L335.014 242.787C335.52 242.611 336.235 242.457 337.159 242.325C338.083 242.171 339.04 242.094 340.03 242.094ZM358.312 238.035C358.312 238.827 358.059 239.454 357.553 239.916C357.047 240.378 356.442 240.609 355.738 240.609C355.034 240.609 354.429 240.378 353.923 239.916C353.439 239.454 353.197 238.827 353.197 238.035C353.197 237.221 353.439 236.583 353.923 236.121C354.429 235.659 355.034 235.428 355.738 235.428C356.442 235.428 357.047 235.659 357.553 236.121C358.059 236.583 358.312 237.221 358.312 238.035ZM364.351 257.34C363.515 257.736 362.723 258 361.975 258.132C361.249 258.286 360.578 258.363 359.962 258.363C358.906 258.363 358.015 258.209 357.289 257.901C356.585 257.593 356.013 257.153 355.573 256.581C355.155 255.987 354.858 255.272 354.682 254.436C354.506 253.6 354.418 252.643 354.418 251.565V245.856H350.128V242.49H358.477V252.093C358.477 253.017 358.642 253.71 358.972 254.172C359.324 254.612 359.896 254.832 360.688 254.832C361.062 254.832 361.513 254.788 362.041 254.7C362.569 254.59 363.163 254.381 363.823 254.073L364.351 257.34ZM370.489 245.856H366.958V242.49H370.489V238.596L374.548 237.936V242.49H381.049V245.856H374.548V252.126C374.548 252.698 374.603 253.16 374.713 253.512C374.823 253.864 374.977 254.139 375.175 254.337C375.373 254.535 375.615 254.667 375.901 254.733C376.187 254.799 376.506 254.832 376.858 254.832C377.232 254.832 377.573 254.821 377.881 254.799C378.211 254.777 378.519 254.744 378.805 254.7C379.113 254.634 379.421 254.546 379.729 254.436C380.059 254.326 380.411 254.183 380.785 254.007L381.346 257.505C380.598 257.813 379.784 258.033 378.904 258.165C378.046 258.297 377.21 258.363 376.396 258.363C375.45 258.363 374.614 258.286 373.888 258.132C373.162 257.978 372.546 257.681 372.04 257.241C371.534 256.801 371.149 256.185 370.885 255.393C370.621 254.579 370.489 253.523 370.489 252.225V245.856Z" fill="#7ACEFD"/>
<path d="M0 26C0 11.6406 11.6406 0 26 0H756C770.359 0 782 11.6406 782 26V60H0V26Z" fill="#545454"/>
<path d="M373.78 38.36C374.18 38.36 374.57 38.36 374.95 38.36C375.33 38.34 375.66 38.31 375.94 38.27V35.03C375.7 34.99 375.41 34.96 375.07 34.94C374.73 34.9 374.42 34.88 374.14 34.88C373.76 34.88 373.39 34.91 373.03 34.97C372.67 35.01 372.35 35.09 372.07 35.21C371.81 35.33 371.6 35.5 371.44 35.72C371.28 35.94 371.2 36.23 371.2 36.59C371.2 37.23 371.44 37.69 371.92 37.97C372.4 38.23 373.02 38.36 373.78 38.36ZM373.45 26.54C374.61 26.54 375.57 26.68 376.33 26.96C377.11 27.22 377.73 27.6 378.19 28.1C378.65 28.58 378.98 29.18 379.18 29.9C379.38 30.6 379.48 31.39 379.48 32.27V40.67C378.94 40.79 378.14 40.93 377.08 41.09C376.02 41.25 374.83 41.33 373.51 41.33C372.61 41.33 371.79 41.25 371.05 41.09C370.33 40.93 369.71 40.67 369.19 40.31C368.67 39.93 368.27 39.45 367.99 38.87C367.71 38.27 367.57 37.54 367.57 36.68C367.57 35.86 367.73 35.17 368.05 34.61C368.37 34.05 368.8 33.6 369.34 33.26C369.88 32.92 370.5 32.68 371.2 32.54C371.9 32.38 372.63 32.3 373.39 32.3C374.35 32.3 375.2 32.38 375.94 32.54V32.09C375.94 31.39 375.72 30.81 375.28 30.35C374.84 29.87 374.08 29.63 373 29.63C372.3 29.63 371.62 29.68 370.96 29.78C370.32 29.88 369.8 30 369.4 30.14L368.89 27.17C369.35 27.01 370 26.87 370.84 26.75C371.68 26.61 372.55 26.54 373.45 26.54ZM391.87 34.07C391.87 32.81 391.62 31.78 391.12 30.98C390.62 30.16 389.86 29.75 388.84 29.75C388.56 29.75 388.26 29.77 387.94 29.81C387.62 29.83 387.35 29.85 387.13 29.87V37.61C387.37 37.77 387.69 37.9 388.09 38C388.49 38.1 388.89 38.15 389.29 38.15C390.17 38.15 390.82 37.8 391.24 37.1C391.66 36.38 391.87 35.37 391.87 34.07ZM395.62 33.95C395.62 35.03 395.5 36.03 395.26 36.95C395.02 37.85 394.67 38.63 394.21 39.29C393.75 39.93 393.17 40.43 392.47 40.79C391.77 41.15 390.96 41.33 390.04 41.33C389.1 41.33 388.13 41.1 387.13 40.64V45.95H383.44V27.35C384.12 27.13 384.95 26.95 385.93 26.81C386.93 26.67 387.91 26.6 388.87 26.6C391.05 26.6 392.72 27.26 393.88 28.58C395.04 29.9 395.62 31.69 395.62 33.95ZM407.17 34.07C407.17 32.81 406.92 31.78 406.42 30.98C405.92 30.16 405.16 29.75 404.14 29.75C403.86 29.75 403.56 29.77 403.24 29.81C402.92 29.83 402.65 29.85 402.43 29.87V37.61C402.67 37.77 402.99 37.9 403.39 38C403.79 38.1 404.19 38.15 404.59 38.15C405.47 38.15 406.12 37.8 406.54 37.1C406.96 36.38 407.17 35.37 407.17 34.07ZM410.92 33.95C410.92 35.03 410.8 36.03 410.56 36.95C410.32 37.85 409.97 38.63 409.51 39.29C409.05 39.93 408.47 40.43 407.77 40.79C407.07 41.15 406.26 41.33 405.34 41.33C404.4 41.33 403.43 41.1 402.43 40.64V45.95H398.74V27.35C399.42 27.13 400.25 26.95 401.23 26.81C402.23 26.67 403.21 26.6 404.17 26.6C406.35 26.6 408.02 27.26 409.18 28.58C410.34 29.9 410.92 31.69 410.92 33.95ZM422.35 38.63C422.35 39.51 422.08 40.18 421.54 40.64C421 41.1 420.38 41.33 419.68 41.33C419.32 41.33 418.98 41.27 418.66 41.15C418.34 41.03 418.05 40.86 417.79 40.64C417.55 40.4 417.35 40.12 417.19 39.8C417.05 39.46 416.98 39.07 416.98 38.63C416.98 38.21 417.05 37.84 417.19 37.52C417.35 37.18 417.55 36.9 417.79 36.68C418.05 36.46 418.34 36.29 418.66 36.17C418.98 36.05 419.32 35.99 419.68 35.99C420.38 35.99 421 36.22 421.54 36.68C422.08 37.14 422.35 37.79 422.35 38.63ZM439.45 40.07C439.45 41.21 439.31 42.16 439.03 42.92C438.75 43.7 438.36 44.32 437.86 44.78C437.38 45.26 436.8 45.6 436.12 45.8C435.46 46 434.74 46.1 433.96 46.1C433 46.1 432.11 45.98 431.29 45.74C430.47 45.5 429.68 45.19 428.92 44.81L430.06 41.69C430.56 41.97 431.16 42.23 431.86 42.47C432.58 42.73 433.23 42.86 433.81 42.86C434.43 42.86 434.91 42.67 435.25 42.29C435.59 41.93 435.76 41.25 435.76 40.25V29.96H430.06V26.9H439.45V40.07ZM439 22.85C439 23.57 438.77 24.14 438.31 24.56C437.85 24.98 437.3 25.19 436.66 25.19C436.02 25.19 435.47 24.98 435.01 24.56C434.57 24.14 434.35 23.57 434.35 22.85C434.35 22.11 434.57 21.53 435.01 21.11C435.47 20.69 436.02 20.48 436.66 20.48C437.3 20.48 437.85 20.69 438.31 21.11C438.77 21.53 439 22.11 439 22.85ZM449.59 38.21C450.49 38.21 451.18 38.15 451.66 38.03C452.14 37.89 452.38 37.62 452.38 37.22C452.38 36.96 452.3 36.74 452.14 36.56C452 36.38 451.79 36.23 451.51 36.11C451.25 35.97 450.94 35.84 450.58 35.72C450.24 35.6 449.88 35.48 449.5 35.36C448.96 35.2 448.41 35.02 447.85 34.82C447.29 34.6 446.78 34.33 446.32 34.01C445.86 33.69 445.48 33.29 445.18 32.81C444.88 32.31 444.73 31.69 444.73 30.95C444.73 30.35 444.84 29.79 445.06 29.27C445.3 28.73 445.66 28.26 446.14 27.86C446.64 27.44 447.27 27.12 448.03 26.9C448.79 26.66 449.7 26.54 450.76 26.54C451.68 26.54 452.53 26.61 453.31 26.75C454.11 26.89 454.8 27.09 455.38 27.35L454.81 30.47C454.47 30.37 453.94 30.21 453.22 29.99C452.5 29.75 451.69 29.63 450.79 29.63C449.85 29.63 449.21 29.75 448.87 29.99C448.55 30.21 448.39 30.45 448.39 30.71C448.39 30.93 448.46 31.13 448.6 31.31C448.76 31.47 448.96 31.62 449.2 31.76C449.46 31.9 449.75 32.04 450.07 32.18C450.41 32.3 450.77 32.42 451.15 32.54C451.69 32.72 452.25 32.92 452.83 33.14C453.41 33.36 453.93 33.64 454.39 33.98C454.87 34.3 455.26 34.72 455.56 35.24C455.86 35.74 456.01 36.36 456.01 37.1C456.01 37.68 455.9 38.23 455.68 38.75C455.46 39.27 455.09 39.72 454.57 40.1C454.07 40.48 453.41 40.78 452.59 41C451.77 41.22 450.76 41.33 449.56 41.33C448.34 41.33 447.3 41.19 446.44 40.91C445.58 40.63 444.89 40.38 444.37 40.16L444.94 37.07C445.64 37.35 446.38 37.61 447.16 37.85C447.96 38.09 448.77 38.21 449.59 38.21Z" fill="white"/>
</svg>
