<svg width="93" height="93" viewBox="0 0 93 93" fill="none" xmlns="http://www.w3.org/2000/svg">
<path fill-rule="evenodd" clip-rule="evenodd" d="M46.5 93C72.1812 93 93 72.1812 93 46.5C93 20.8188 72.1812 0 46.5 0C20.8188 0 0 20.8188 0 46.5C0 72.1812 20.8188 93 46.5 93ZM58.9246 64.9618C60.0543 64.9618 61.1379 64.513 61.9367 63.7142C62.3328 63.3185 62.647 62.8487 62.8614 62.3315C63.0758 61.8144 63.1861 61.26 63.1861 60.7002C63.1861 60.1404 63.0758 59.586 62.8614 59.0689C62.647 58.5517 62.3328 58.0819 61.9367 57.6863L52.1459 46.5038L61.9367 35.3142C62.3376 34.9198 62.6564 34.4499 62.8748 33.9317C63.0932 33.4135 63.2068 32.8571 63.2091 32.2948C63.2114 31.7325 63.1023 31.1752 62.8881 30.6552C62.674 30.1353 62.359 29.6628 61.9614 29.2652C61.5637 28.8675 61.0913 28.5526 60.5713 28.3384C60.0513 28.1243 59.4941 28.0152 58.9318 28.0175C58.3694 28.0198 57.8131 28.1334 57.2949 28.3518C56.7766 28.5701 56.3068 28.8889 55.9124 29.2898L46.5014 40.0499L37.0867 29.2898C36.6924 28.8889 36.2225 28.5701 35.7043 28.3518C35.1861 28.1334 34.6297 28.0198 34.0674 28.0175C33.505 28.0152 32.9478 28.1243 32.4278 28.3384C31.9078 28.5526 31.4354 28.8675 31.0378 29.2652C30.6401 29.6628 30.3251 30.1353 30.111 30.6552C29.8969 31.1752 29.7878 31.7325 29.7901 32.2948C29.7924 32.8571 29.906 33.4135 30.1243 33.9317C30.3427 34.4499 30.6615 34.9198 31.0624 35.3142L40.8568 46.5038L31.0659 57.6863C30.6651 58.0807 30.3463 58.5505 30.1279 59.0687C29.9095 59.5869 29.7959 60.1433 29.7936 60.7056C29.7913 61.268 29.9004 61.8252 30.1146 62.3452C30.3287 62.8652 30.6437 63.3376 31.0413 63.7352C31.439 64.1329 31.9114 64.4479 32.4314 64.662C32.9514 64.8761 33.5086 64.9852 34.0709 64.9829C34.6333 64.9806 35.1896 64.867 35.7078 64.6487C36.2261 64.4303 36.6959 64.1115 37.0903 63.7106L46.5014 52.9577L55.9124 63.7142C56.7113 64.513 57.7948 64.9618 58.9246 64.9618Z" fill="white"/>
</svg>
