<svg width="1971" height="1145" viewBox="0 0 1971 1145" fill="none" xmlns="http://www.w3.org/2000/svg">
<path d="M3 1063.5L497.5 807.5H1005L1359 368.5L1748.5 314L1966.5 4" stroke="#C2E3FF" stroke-width="11" stroke-dasharray="50 50"/>
<path d="M875 1009C875 1003.48 879.477 999 885 999H1039.9C1045.42 999 1049.9 1003.48 1049.9 1009V1145H875V1009Z" fill="#5CB5FF"/>
<path d="M1110.56 865C1110.56 859.477 1115.03 855 1120.56 855H1287.59C1293.11 855 1297.59 859.477 1297.59 865V1145H1110.56V865Z" fill="#FF9675"/>
<path d="M1358.25 758C1358.25 752.477 1362.72 748 1368.25 748H1582.79C1588.31 748 1592.79 752.477 1592.79 758V1145H1358.25V758Z" fill="#00B3A8"/>
<path d="M1663.56 557C1663.56 551.477 1668.04 547 1673.56 547H1924.5C1930.02 547 1934.5 551.477 1934.5 557V1145H1663.56V557Z" fill="#FFB61D"/>
<rect x="1049.9" y="1132" width="247.688" height="13" fill="#FF9675"/>
<rect x="1297.59" y="1132" width="295.204" height="13" fill="#00B2A8"/>
<rect x="1593" y="1132" width="360" height="13" fill="#FFB61D"/>
<path d="M3 1145H877V1132H3V1145Z" fill="#5CB5FF"/>
<circle cx="500" cy="810" r="26.5" fill="#5CB5FF"/>
<circle cx="1003.5" cy="802.5" r="27" fill="#FF9675"/>
<circle cx="1366" cy="372" r="29.5" fill="#00B2A8"/>
<circle cx="1749.5" cy="306.5" r="36" fill="#FFB61D"/>
</svg>
