<svg width="1953" height="875" viewBox="0 0 1953 875" fill="none" xmlns="http://www.w3.org/2000/svg">
<path d="M3 793.5L497.5 537.5H1005L1359 98.5L1748.5 44H1930.5" stroke="#C2E3FF" stroke-width="11" stroke-dasharray="50 50"/>
<path d="M875 739C875 733.477 879.477 729 885 729H1039.9C1045.42 729 1049.9 733.477 1049.9 739V875H875V739Z" fill="#5CB5FF"/>
<path d="M1110.56 595C1110.56 589.477 1115.03 585 1120.56 585H1287.59C1293.11 585 1297.59 589.477 1297.59 595V875H1110.56V595Z" fill="#FF9675"/>
<path d="M1358.25 488C1358.25 482.477 1362.72 478 1368.25 478H1582.79C1588.31 478 1592.79 482.477 1592.79 488V875H1358.25V488Z" fill="#00B3A8"/>
<path d="M1663.56 287C1663.56 281.477 1668.04 277 1673.56 277H1924.5C1930.02 277 1934.5 281.477 1934.5 287V875H1663.56V287Z" fill="#FFB61D"/>
<rect x="1050" y="862" width="247.688" height="13" fill="#FF9675"/>
<rect x="1297.59" y="862" width="295.204" height="13" fill="#00B2A8"/>
<rect x="1593" y="862" width="360" height="13" fill="#FFB61D"/>
<path d="M3 875H877V862H3V875Z" fill="#5CB5FF"/>
<circle cx="500" cy="540" r="26.5" fill="#5CB5FF"/>
<circle cx="1003.5" cy="532.5" r="27" fill="#FF9675"/>
<circle cx="1366" cy="102" r="29.5" fill="#00B2A8"/>
<circle cx="1749.5" cy="36.5" r="36" fill="#FFB61D"/>
</svg>
