<svg width="763" height="763" viewBox="0 0 763 763" fill="none" xmlns="http://www.w3.org/2000/svg">
<circle cx="381.5" cy="381.5" r="381.5" fill="white"/>
<path d="M558.622 152C544.688 151.994 531.129 156.514 519.982 164.879C508.836 173.245 500.704 185.005 496.809 198.392C492.914 211.778 493.466 226.068 498.383 239.114C503.3 252.159 512.316 263.256 524.075 270.735L482.067 417.858C480.763 417.775 479.456 417.731 478.15 417.727C464.301 417.712 450.821 422.189 439.731 430.488L362.121 365.772C365.796 354.864 366.482 343.17 364.108 331.906C361.734 320.643 356.388 310.221 348.625 301.726C340.862 293.231 330.965 286.973 319.966 283.602C308.966 280.232 297.264 279.872 286.079 282.561C274.893 285.25 264.631 290.888 256.362 298.891C248.092 306.893 242.117 316.966 239.057 328.063C235.997 339.159 235.964 350.874 238.962 361.987C241.96 373.1 247.88 383.207 256.105 391.255L210.545 482.436C208.55 482.246 206.547 482.149 204.543 482.146C189.12 482.126 174.202 487.64 162.495 497.687C150.788 507.734 143.069 521.648 140.74 536.904C138.41 552.159 141.624 567.745 149.798 580.832C157.972 593.919 170.564 603.64 185.289 608.229C200.014 612.819 215.896 611.974 230.051 605.847C244.207 599.721 255.698 588.719 262.438 574.838C269.179 560.957 270.723 545.119 266.789 530.196C262.856 515.274 253.706 502.258 241 493.51L284.053 407.361C294.511 410.248 305.53 410.436 316.081 407.91C326.631 405.383 336.371 400.223 344.389 392.911L419.53 455.57C414.428 466.822 412.667 479.304 414.457 491.53C416.247 503.755 421.514 515.208 429.628 524.521C437.743 533.835 448.363 540.617 460.222 544.059C472.081 547.5 484.68 547.457 496.515 543.933C508.351 540.409 518.923 533.553 526.973 524.184C535.023 514.814 540.21 503.326 541.916 491.088C543.621 478.851 541.774 466.38 536.593 455.164C531.413 443.948 523.118 434.46 512.698 427.83L554.705 280.707C556.002 280.785 557.305 280.837 558.622 280.837C575.696 280.837 592.071 274.05 604.144 261.97C616.217 249.889 623 233.504 623 216.419C623 199.334 616.217 182.949 604.144 170.868C592.071 158.787 575.696 152 558.622 152V152ZM204.543 578.774C198.177 578.774 191.953 576.885 186.66 573.345C181.366 569.806 177.241 564.776 174.804 558.89C172.368 553.005 171.731 546.529 172.973 540.281C174.215 534.033 177.28 528.294 181.782 523.789C186.284 519.284 192.019 516.217 198.263 514.974C204.507 513.731 210.98 514.369 216.861 516.807C222.743 519.245 227.77 523.373 231.307 528.67C234.844 533.967 236.732 540.194 236.732 546.564C236.723 555.104 233.328 563.291 227.294 569.329C221.259 575.368 213.077 578.764 204.543 578.774V578.774ZM301.11 377.465C294.744 377.465 288.52 375.576 283.227 372.037C277.933 368.498 273.808 363.467 271.371 357.582C268.935 351.697 268.298 345.22 269.54 338.972C270.782 332.724 273.847 326.985 278.349 322.481C282.851 317.976 288.586 314.908 294.83 313.666C301.074 312.423 307.547 313.061 313.428 315.498C319.31 317.936 324.337 322.065 327.874 327.361C331.411 332.658 333.299 338.886 333.299 345.256C333.29 353.796 329.895 361.983 323.861 368.021C317.826 374.059 309.644 377.456 301.11 377.465ZM478.15 514.355C471.783 514.355 465.56 512.466 460.266 508.927C454.973 505.388 450.847 500.357 448.411 494.472C445.974 488.586 445.337 482.11 446.579 475.862C447.821 469.614 450.887 463.875 455.389 459.37C459.89 454.866 465.626 451.798 471.87 450.555C478.114 449.312 484.586 449.95 490.468 452.388C496.35 454.826 501.377 458.954 504.914 464.251C508.451 469.548 510.339 475.775 510.339 482.146C510.329 490.685 506.935 498.872 500.9 504.911C494.865 510.949 486.684 514.345 478.15 514.355V514.355ZM558.622 248.628C552.256 248.628 546.032 246.739 540.739 243.2C535.445 239.661 531.32 234.63 528.883 228.745C526.447 222.859 525.81 216.383 527.052 210.135C528.294 203.887 531.359 198.148 535.861 193.643C540.363 189.139 546.098 186.071 552.342 184.828C558.586 183.585 565.058 184.223 570.94 186.661C576.822 189.099 581.849 193.227 585.386 198.524C588.923 203.821 590.811 210.048 590.811 216.419C590.801 224.958 587.407 233.145 581.372 239.184C575.338 245.222 567.156 248.618 558.622 248.628Z" fill="black"/>
<circle cx="204.372" cy="549.055" r="39.3067" fill="#FF9675"/>
<ellipse cx="301.784" cy="344.546" rx="38.7371" ry="39.8764" fill="#58B19F"/>
<circle cx="477.81" cy="482.974" r="39.3067" fill="#5CB5FF"/>
<ellipse cx="558.702" cy="215.802" rx="37.0281" ry="37.5977" fill="#FFB61D"/>
</svg>
