<svg width="144" height="144" viewBox="0 0 144 144" fill="none" xmlns="http://www.w3.org/2000/svg">
<path d="M104.254 95.3899C102.498 91.236 99.9496 87.4629 96.7512 84.2807C93.5624 81.0893 89.785 78.5448 85.6276 76.7877C85.5903 76.7691 85.5531 76.7598 85.5159 76.7412C91.315 72.5578 95.0849 65.7435 95.0849 58.0553C95.0849 45.3191 84.7526 35 72 35C59.2474 35 48.915 45.3191 48.915 58.0553C48.915 65.7435 52.685 72.5578 58.4841 76.7505C58.4469 76.7691 58.4097 76.7784 58.3724 76.797C54.2022 78.554 50.4602 81.0734 47.2488 84.29C44.0533 87.4746 41.5056 91.2472 39.7462 95.3992C38.0179 99.4642 37.0857 103.822 37.0002 108.238C36.9977 108.337 37.0152 108.436 37.0515 108.528C37.0878 108.62 37.1423 108.705 37.2116 108.776C37.281 108.847 37.364 108.903 37.4556 108.942C37.5471 108.98 37.6455 109 37.7449 109H43.33C43.7395 109 44.0653 108.675 44.0747 108.275C44.2608 101.098 47.1464 94.3766 52.2475 89.2822C57.5254 84.0111 64.5346 81.1105 72 81.1105C79.4654 81.1105 86.4746 84.0111 91.7525 89.2822C96.8536 94.3766 99.7392 101.098 99.9253 108.275C99.9347 108.684 100.26 109 100.67 109H106.255C106.354 109 106.453 108.98 106.544 108.942C106.636 108.903 106.719 108.847 106.788 108.776C106.858 108.705 106.912 108.62 106.949 108.528C106.985 108.436 107.002 108.337 107 108.238C106.907 103.794 105.985 99.4711 104.254 95.3899ZM72 74.0452C67.7274 74.0452 63.7062 72.3812 60.6809 69.3598C57.6557 66.3384 55.9895 62.3224 55.9895 58.0553C55.9895 53.7882 57.6557 49.7721 60.6809 46.7508C63.7062 43.7294 67.7274 42.0653 72 42.0653C76.2726 42.0653 80.2938 43.7294 83.3191 46.7508C86.3443 49.7721 88.0105 53.7882 88.0105 58.0553C88.0105 62.3224 86.3443 66.3384 83.3191 69.3598C80.2938 72.3812 76.2726 74.0452 72 74.0452Z" fill="white"/>
</svg>
