<svg width="144" height="144" viewBox="0 0 144 144" fill="none" xmlns="http://www.w3.org/2000/svg">
<path d="M72.7185 72.8541C74.7828 71.061 76.4386 68.8432 77.5734 66.3513C78.7083 63.8593 79.2956 61.1516 79.2956 58.4118C79.2956 53.2634 77.2575 48.326 73.6297 44.6856C70.0019 41.0452 65.0816 39 59.9511 39C54.8207 39 49.9003 41.0452 46.2725 44.6856C42.6447 48.326 40.6067 53.2634 40.6067 58.4118C40.6066 61.1516 41.194 63.8593 42.3288 66.3513C43.4636 68.8432 45.1194 71.061 47.1838 72.8541C41.7679 75.3151 37.1729 79.2892 33.9482 84.3014C30.7236 89.3136 29.0057 95.1517 29 101.118C29 102.147 29.4076 103.135 30.1332 103.863C30.8587 104.591 31.8428 105 32.8689 105C33.895 105 34.8791 104.591 35.6046 103.863C36.3302 103.135 36.7378 102.147 36.7378 101.118C36.7378 94.9397 39.1835 89.0147 43.5368 84.6462C47.8902 80.2777 53.7946 77.8235 59.9511 77.8235C66.1077 77.8235 72.0121 80.2777 76.3654 84.6462C80.7188 89.0147 83.1645 94.9397 83.1645 101.118C83.1645 102.147 83.5721 103.135 84.2976 103.863C85.0232 104.591 86.0073 105 87.0333 105C88.0594 105 89.0435 104.591 89.7691 103.863C90.4946 103.135 90.9022 102.147 90.9022 101.118C90.8965 95.1517 89.1787 89.3136 85.954 84.3014C82.7293 79.2892 78.1344 75.3151 72.7185 72.8541V72.8541ZM59.9511 70.0588C57.6555 70.0588 55.4115 69.3757 53.5028 68.0959C51.5941 66.8161 50.1064 64.9971 49.228 62.8689C48.3495 60.7407 48.1196 58.3988 48.5675 56.1395C49.0153 53.8802 50.1207 51.8049 51.744 50.1761C53.3672 48.5472 55.4353 47.4379 57.6868 46.9885C59.9382 46.5391 62.272 46.7697 64.3928 47.6513C66.5136 48.5328 68.3264 50.0257 69.6017 51.941C70.8771 53.8564 71.5578 56.1082 71.5578 58.4118C71.5578 61.5008 70.3349 64.4632 68.1583 66.6475C65.9816 68.8317 63.0294 70.0588 59.9511 70.0588ZM97.6341 71.3012C100.11 68.5033 101.727 65.0469 102.291 61.3481C102.856 57.6494 102.342 53.8658 100.813 50.4529C99.2846 47.0401 96.8054 44.1433 93.6742 42.1114C90.543 40.0795 86.8933 38.999 83.1645 39C82.1384 39 81.1543 39.409 80.4287 40.1371C79.7032 40.8652 79.2956 41.8527 79.2956 42.8824C79.2956 43.912 79.7032 44.8995 80.4287 45.6276C81.1543 46.3557 82.1384 46.7647 83.1645 46.7647C86.2427 46.7647 89.1949 47.9918 91.3716 50.1761C93.5483 52.3603 94.7711 55.3228 94.7711 58.4118C94.7657 60.4509 94.2268 62.4529 93.2083 64.2175C92.1899 65.9821 90.7276 67.4475 88.9678 68.4671C88.3942 68.7991 87.9151 69.2733 87.5764 69.8443C87.2377 70.4153 87.0507 71.064 87.0333 71.7282C87.0172 72.3873 87.1685 73.0397 87.4731 73.6238C87.7777 74.208 88.2255 74.7047 88.7743 75.0671L90.2832 76.0765L90.7862 76.3482C95.4497 78.5678 99.384 82.0786 102.126 86.4669C104.868 90.8552 106.303 95.9383 106.262 101.118C106.262 102.147 106.669 103.135 107.395 103.863C108.12 104.591 109.105 105 110.131 105C111.157 105 112.141 104.591 112.866 103.863C113.592 103.135 114 102.147 114 101.118C114.031 95.1599 112.544 89.293 109.68 84.0744C106.815 78.8557 102.669 74.4587 97.6341 71.3012V71.3012Z" fill="white"/>
</svg>
