<svg width="57" height="57" viewBox="0 0 57 57" fill="none" xmlns="http://www.w3.org/2000/svg">
<path d="M28.5 0C36.0587 0 43.3078 3.00267 48.6525 8.34745C53.9973 13.6922 57 20.9413 57 28.5C57 36.0587 53.9973 43.3078 48.6525 48.6525C43.3078 53.9973 36.0587 57 28.5 57C20.9413 57 13.6922 53.9973 8.34746 48.6525C3.00267 43.3078 0 36.0587 0 28.5C0 20.9413 3.00267 13.6922 8.34746 8.34745C13.6922 3.00267 20.9413 0 28.5 0ZM16.0313 26.7188C15.5588 26.7188 15.1058 26.9064 14.7717 27.2405C14.4377 27.5745 14.25 28.0276 14.25 28.5C14.25 28.9724 14.4377 29.4255 14.7717 29.7595C15.1058 30.0936 15.5588 30.2812 16.0312 30.2812L36.6688 30.2813L29.0201 37.9264C28.6857 38.2608 28.4977 38.7145 28.4977 39.1875C28.4977 39.6605 28.6857 40.1142 29.0201 40.4486C29.3546 40.7831 29.8082 40.971 30.2812 40.971C30.7543 40.971 31.2079 40.7831 31.5424 40.4486L42.2299 29.7611C42.3958 29.5957 42.5274 29.3991 42.6172 29.1827C42.707 28.9663 42.7532 28.7343 42.7532 28.5C42.7532 28.2657 42.707 28.0337 42.6172 27.8173C42.5274 27.6009 42.3958 27.4043 42.2299 27.2389L31.5424 16.5514C31.2079 16.2169 30.7543 16.029 30.2813 16.029C29.8082 16.029 29.3546 16.2169 29.0201 16.5514C28.6857 16.8858 28.4977 17.3395 28.4977 17.8125C28.4977 18.2855 28.6857 18.7392 29.0201 19.0736L36.6688 26.7188L16.0313 26.7188Z" fill="white"/>
</svg>
